G04 #@! TF.GenerationSoftware,KiCad,Pcbnew,(5.1.4)-1*
G04 #@! TF.CreationDate,2020-09-07T21:37:51+01:00*
G04 #@! TF.ProjectId,led-board,6c65642d-626f-4617-9264-2e6b69636164,rev?*
G04 #@! TF.SameCoordinates,Original*
G04 #@! TF.FileFunction,Soldermask,Bot*
G04 #@! TF.FilePolarity,Negative*
%FSLAX46Y46*%
G04 Gerber Fmt 4.6, Leading zero omitted, Abs format (unit mm)*
G04 Created by KiCad (PCBNEW (5.1.4)-1) date 2020-09-07 21:37:51*
%MOMM*%
%LPD*%
G04 APERTURE LIST*
%ADD10C,0.100000*%
G04 APERTURE END LIST*
D10*
G36*
X300535256Y-232491298D02*
G01*
X300641579Y-232512447D01*
X300942042Y-232636903D01*
X301212451Y-232817585D01*
X301442415Y-233047549D01*
X301623097Y-233317958D01*
X301747553Y-233618421D01*
X301811000Y-233937391D01*
X301811000Y-234262609D01*
X301747553Y-234581579D01*
X301623097Y-234882042D01*
X301442415Y-235152451D01*
X301212451Y-235382415D01*
X300942042Y-235563097D01*
X300641579Y-235687553D01*
X300535256Y-235708702D01*
X300322611Y-235751000D01*
X299997389Y-235751000D01*
X299784744Y-235708702D01*
X299678421Y-235687553D01*
X299377958Y-235563097D01*
X299107549Y-235382415D01*
X298877585Y-235152451D01*
X298696903Y-234882042D01*
X298572447Y-234581579D01*
X298509000Y-234262609D01*
X298509000Y-233937391D01*
X298572447Y-233618421D01*
X298696903Y-233317958D01*
X298877585Y-233047549D01*
X299107549Y-232817585D01*
X299377958Y-232636903D01*
X299678421Y-232512447D01*
X299784744Y-232491298D01*
X299997389Y-232449000D01*
X300322611Y-232449000D01*
X300535256Y-232491298D01*
X300535256Y-232491298D01*
G37*
G36*
X289105256Y-232491298D02*
G01*
X289211579Y-232512447D01*
X289512042Y-232636903D01*
X289782451Y-232817585D01*
X290012415Y-233047549D01*
X290193097Y-233317958D01*
X290317553Y-233618421D01*
X290381000Y-233937391D01*
X290381000Y-234262609D01*
X290317553Y-234581579D01*
X290193097Y-234882042D01*
X290012415Y-235152451D01*
X289782451Y-235382415D01*
X289512042Y-235563097D01*
X289211579Y-235687553D01*
X289105256Y-235708702D01*
X288892611Y-235751000D01*
X288567389Y-235751000D01*
X288354744Y-235708702D01*
X288248421Y-235687553D01*
X287947958Y-235563097D01*
X287677549Y-235382415D01*
X287447585Y-235152451D01*
X287266903Y-234882042D01*
X287142447Y-234581579D01*
X287079000Y-234262609D01*
X287079000Y-233937391D01*
X287142447Y-233618421D01*
X287266903Y-233317958D01*
X287447585Y-233047549D01*
X287677549Y-232817585D01*
X287947958Y-232636903D01*
X288248421Y-232512447D01*
X288354744Y-232491298D01*
X288567389Y-232449000D01*
X288892611Y-232449000D01*
X289105256Y-232491298D01*
X289105256Y-232491298D01*
G37*
G36*
X295313642Y-226979781D02*
G01*
X295459414Y-227040162D01*
X295459416Y-227040163D01*
X295590608Y-227127822D01*
X295702178Y-227239392D01*
X295789837Y-227370584D01*
X295789838Y-227370586D01*
X295850219Y-227516358D01*
X295881000Y-227671107D01*
X295881000Y-227828893D01*
X295850219Y-227983642D01*
X295789838Y-228129414D01*
X295789837Y-228129416D01*
X295702178Y-228260608D01*
X295590608Y-228372178D01*
X295459416Y-228459837D01*
X295459415Y-228459838D01*
X295459414Y-228459838D01*
X295313642Y-228520219D01*
X295158893Y-228551000D01*
X295001107Y-228551000D01*
X294846358Y-228520219D01*
X294700586Y-228459838D01*
X294700585Y-228459838D01*
X294700584Y-228459837D01*
X294569392Y-228372178D01*
X294457822Y-228260608D01*
X294370163Y-228129416D01*
X294370162Y-228129414D01*
X294309781Y-227983642D01*
X294279000Y-227828893D01*
X294279000Y-227671107D01*
X294309781Y-227516358D01*
X294370162Y-227370586D01*
X294370163Y-227370584D01*
X294457822Y-227239392D01*
X294569392Y-227127822D01*
X294700584Y-227040163D01*
X294700586Y-227040162D01*
X294846358Y-226979781D01*
X295001107Y-226949000D01*
X295158893Y-226949000D01*
X295313642Y-226979781D01*
X295313642Y-226979781D01*
G37*
G36*
X297853642Y-226979781D02*
G01*
X297999414Y-227040162D01*
X297999416Y-227040163D01*
X298130608Y-227127822D01*
X298242178Y-227239392D01*
X298329837Y-227370584D01*
X298329838Y-227370586D01*
X298390219Y-227516358D01*
X298421000Y-227671107D01*
X298421000Y-227828893D01*
X298390219Y-227983642D01*
X298329838Y-228129414D01*
X298329837Y-228129416D01*
X298242178Y-228260608D01*
X298130608Y-228372178D01*
X297999416Y-228459837D01*
X297999415Y-228459838D01*
X297999414Y-228459838D01*
X297853642Y-228520219D01*
X297698893Y-228551000D01*
X297541107Y-228551000D01*
X297386358Y-228520219D01*
X297240586Y-228459838D01*
X297240585Y-228459838D01*
X297240584Y-228459837D01*
X297109392Y-228372178D01*
X296997822Y-228260608D01*
X296910163Y-228129416D01*
X296910162Y-228129414D01*
X296849781Y-227983642D01*
X296819000Y-227828893D01*
X296819000Y-227671107D01*
X296849781Y-227516358D01*
X296910162Y-227370586D01*
X296910163Y-227370584D01*
X296997822Y-227239392D01*
X297109392Y-227127822D01*
X297240584Y-227040163D01*
X297240586Y-227040162D01*
X297386358Y-226979781D01*
X297541107Y-226949000D01*
X297698893Y-226949000D01*
X297853642Y-226979781D01*
X297853642Y-226979781D01*
G37*
G36*
X290801000Y-228551000D02*
G01*
X289199000Y-228551000D01*
X289199000Y-226949000D01*
X290801000Y-226949000D01*
X290801000Y-228551000D01*
X290801000Y-228551000D01*
G37*
G36*
X292773642Y-226979781D02*
G01*
X292919414Y-227040162D01*
X292919416Y-227040163D01*
X293050608Y-227127822D01*
X293162178Y-227239392D01*
X293249837Y-227370584D01*
X293249838Y-227370586D01*
X293310219Y-227516358D01*
X293341000Y-227671107D01*
X293341000Y-227828893D01*
X293310219Y-227983642D01*
X293249838Y-228129414D01*
X293249837Y-228129416D01*
X293162178Y-228260608D01*
X293050608Y-228372178D01*
X292919416Y-228459837D01*
X292919415Y-228459838D01*
X292919414Y-228459838D01*
X292773642Y-228520219D01*
X292618893Y-228551000D01*
X292461107Y-228551000D01*
X292306358Y-228520219D01*
X292160586Y-228459838D01*
X292160585Y-228459838D01*
X292160584Y-228459837D01*
X292029392Y-228372178D01*
X291917822Y-228260608D01*
X291830163Y-228129416D01*
X291830162Y-228129414D01*
X291769781Y-227983642D01*
X291739000Y-227828893D01*
X291739000Y-227671107D01*
X291769781Y-227516358D01*
X291830162Y-227370586D01*
X291830163Y-227370584D01*
X291917822Y-227239392D01*
X292029392Y-227127822D01*
X292160584Y-227040163D01*
X292160586Y-227040162D01*
X292306358Y-226979781D01*
X292461107Y-226949000D01*
X292618893Y-226949000D01*
X292773642Y-226979781D01*
X292773642Y-226979781D01*
G37*
G36*
X294043642Y-224439781D02*
G01*
X294189414Y-224500162D01*
X294189416Y-224500163D01*
X294320608Y-224587822D01*
X294432178Y-224699392D01*
X294519837Y-224830584D01*
X294519838Y-224830586D01*
X294580219Y-224976358D01*
X294611000Y-225131107D01*
X294611000Y-225288893D01*
X294580219Y-225443642D01*
X294519838Y-225589414D01*
X294519837Y-225589416D01*
X294432178Y-225720608D01*
X294320608Y-225832178D01*
X294189416Y-225919837D01*
X294189415Y-225919838D01*
X294189414Y-225919838D01*
X294043642Y-225980219D01*
X293888893Y-226011000D01*
X293731107Y-226011000D01*
X293576358Y-225980219D01*
X293430586Y-225919838D01*
X293430585Y-225919838D01*
X293430584Y-225919837D01*
X293299392Y-225832178D01*
X293187822Y-225720608D01*
X293100163Y-225589416D01*
X293100162Y-225589414D01*
X293039781Y-225443642D01*
X293009000Y-225288893D01*
X293009000Y-225131107D01*
X293039781Y-224976358D01*
X293100162Y-224830586D01*
X293100163Y-224830584D01*
X293187822Y-224699392D01*
X293299392Y-224587822D01*
X293430584Y-224500163D01*
X293430586Y-224500162D01*
X293576358Y-224439781D01*
X293731107Y-224409000D01*
X293888893Y-224409000D01*
X294043642Y-224439781D01*
X294043642Y-224439781D01*
G37*
G36*
X299123642Y-224439781D02*
G01*
X299269414Y-224500162D01*
X299269416Y-224500163D01*
X299400608Y-224587822D01*
X299512178Y-224699392D01*
X299599837Y-224830584D01*
X299599838Y-224830586D01*
X299660219Y-224976358D01*
X299691000Y-225131107D01*
X299691000Y-225288893D01*
X299660219Y-225443642D01*
X299599838Y-225589414D01*
X299599837Y-225589416D01*
X299512178Y-225720608D01*
X299400608Y-225832178D01*
X299269416Y-225919837D01*
X299269415Y-225919838D01*
X299269414Y-225919838D01*
X299123642Y-225980219D01*
X298968893Y-226011000D01*
X298811107Y-226011000D01*
X298656358Y-225980219D01*
X298510586Y-225919838D01*
X298510585Y-225919838D01*
X298510584Y-225919837D01*
X298379392Y-225832178D01*
X298267822Y-225720608D01*
X298180163Y-225589416D01*
X298180162Y-225589414D01*
X298119781Y-225443642D01*
X298089000Y-225288893D01*
X298089000Y-225131107D01*
X298119781Y-224976358D01*
X298180162Y-224830586D01*
X298180163Y-224830584D01*
X298267822Y-224699392D01*
X298379392Y-224587822D01*
X298510584Y-224500163D01*
X298510586Y-224500162D01*
X298656358Y-224439781D01*
X298811107Y-224409000D01*
X298968893Y-224409000D01*
X299123642Y-224439781D01*
X299123642Y-224439781D01*
G37*
G36*
X296583642Y-224439781D02*
G01*
X296729414Y-224500162D01*
X296729416Y-224500163D01*
X296860608Y-224587822D01*
X296972178Y-224699392D01*
X297059837Y-224830584D01*
X297059838Y-224830586D01*
X297120219Y-224976358D01*
X297151000Y-225131107D01*
X297151000Y-225288893D01*
X297120219Y-225443642D01*
X297059838Y-225589414D01*
X297059837Y-225589416D01*
X296972178Y-225720608D01*
X296860608Y-225832178D01*
X296729416Y-225919837D01*
X296729415Y-225919838D01*
X296729414Y-225919838D01*
X296583642Y-225980219D01*
X296428893Y-226011000D01*
X296271107Y-226011000D01*
X296116358Y-225980219D01*
X295970586Y-225919838D01*
X295970585Y-225919838D01*
X295970584Y-225919837D01*
X295839392Y-225832178D01*
X295727822Y-225720608D01*
X295640163Y-225589416D01*
X295640162Y-225589414D01*
X295579781Y-225443642D01*
X295549000Y-225288893D01*
X295549000Y-225131107D01*
X295579781Y-224976358D01*
X295640162Y-224830586D01*
X295640163Y-224830584D01*
X295727822Y-224699392D01*
X295839392Y-224587822D01*
X295970584Y-224500163D01*
X295970586Y-224500162D01*
X296116358Y-224439781D01*
X296271107Y-224409000D01*
X296428893Y-224409000D01*
X296583642Y-224439781D01*
X296583642Y-224439781D01*
G37*
G36*
X291503642Y-224439781D02*
G01*
X291649414Y-224500162D01*
X291649416Y-224500163D01*
X291780608Y-224587822D01*
X291892178Y-224699392D01*
X291979837Y-224830584D01*
X291979838Y-224830586D01*
X292040219Y-224976358D01*
X292071000Y-225131107D01*
X292071000Y-225288893D01*
X292040219Y-225443642D01*
X291979838Y-225589414D01*
X291979837Y-225589416D01*
X291892178Y-225720608D01*
X291780608Y-225832178D01*
X291649416Y-225919837D01*
X291649415Y-225919838D01*
X291649414Y-225919838D01*
X291503642Y-225980219D01*
X291348893Y-226011000D01*
X291191107Y-226011000D01*
X291036358Y-225980219D01*
X290890586Y-225919838D01*
X290890585Y-225919838D01*
X290890584Y-225919837D01*
X290759392Y-225832178D01*
X290647822Y-225720608D01*
X290560163Y-225589416D01*
X290560162Y-225589414D01*
X290499781Y-225443642D01*
X290469000Y-225288893D01*
X290469000Y-225131107D01*
X290499781Y-224976358D01*
X290560162Y-224830586D01*
X290560163Y-224830584D01*
X290647822Y-224699392D01*
X290759392Y-224587822D01*
X290890584Y-224500163D01*
X290890586Y-224500162D01*
X291036358Y-224439781D01*
X291191107Y-224409000D01*
X291348893Y-224409000D01*
X291503642Y-224439781D01*
X291503642Y-224439781D01*
G37*
G36*
X313190443Y-192105519D02*
G01*
X313256627Y-192112037D01*
X313426466Y-192163557D01*
X313582991Y-192247222D01*
X313618729Y-192276552D01*
X313720186Y-192359814D01*
X313803448Y-192461271D01*
X313832778Y-192497009D01*
X313916443Y-192653534D01*
X313967963Y-192823373D01*
X313985359Y-193000000D01*
X313967963Y-193176627D01*
X313916443Y-193346466D01*
X313832778Y-193502991D01*
X313803448Y-193538729D01*
X313720186Y-193640186D01*
X313618729Y-193723448D01*
X313582991Y-193752778D01*
X313426466Y-193836443D01*
X313256627Y-193887963D01*
X313190443Y-193894481D01*
X313124260Y-193901000D01*
X313035740Y-193901000D01*
X312969557Y-193894481D01*
X312903373Y-193887963D01*
X312733534Y-193836443D01*
X312577009Y-193752778D01*
X312541271Y-193723448D01*
X312439814Y-193640186D01*
X312356552Y-193538729D01*
X312327222Y-193502991D01*
X312243557Y-193346466D01*
X312192037Y-193176627D01*
X312174641Y-193000000D01*
X312192037Y-192823373D01*
X312243557Y-192653534D01*
X312327222Y-192497009D01*
X312356552Y-192461271D01*
X312439814Y-192359814D01*
X312541271Y-192276552D01*
X312577009Y-192247222D01*
X312733534Y-192163557D01*
X312903373Y-192112037D01*
X312969557Y-192105519D01*
X313035740Y-192099000D01*
X313124260Y-192099000D01*
X313190443Y-192105519D01*
X313190443Y-192105519D01*
G37*
G36*
X315730443Y-192105519D02*
G01*
X315796627Y-192112037D01*
X315966466Y-192163557D01*
X316122991Y-192247222D01*
X316158729Y-192276552D01*
X316260186Y-192359814D01*
X316343448Y-192461271D01*
X316372778Y-192497009D01*
X316456443Y-192653534D01*
X316507963Y-192823373D01*
X316525359Y-193000000D01*
X316507963Y-193176627D01*
X316456443Y-193346466D01*
X316372778Y-193502991D01*
X316343448Y-193538729D01*
X316260186Y-193640186D01*
X316158729Y-193723448D01*
X316122991Y-193752778D01*
X315966466Y-193836443D01*
X315796627Y-193887963D01*
X315730443Y-193894481D01*
X315664260Y-193901000D01*
X315575740Y-193901000D01*
X315509557Y-193894481D01*
X315443373Y-193887963D01*
X315273534Y-193836443D01*
X315117009Y-193752778D01*
X315081271Y-193723448D01*
X314979814Y-193640186D01*
X314896552Y-193538729D01*
X314867222Y-193502991D01*
X314783557Y-193346466D01*
X314732037Y-193176627D01*
X314714641Y-193000000D01*
X314732037Y-192823373D01*
X314783557Y-192653534D01*
X314867222Y-192497009D01*
X314896552Y-192461271D01*
X314979814Y-192359814D01*
X315081271Y-192276552D01*
X315117009Y-192247222D01*
X315273534Y-192163557D01*
X315443373Y-192112037D01*
X315509557Y-192105519D01*
X315575740Y-192099000D01*
X315664260Y-192099000D01*
X315730443Y-192105519D01*
X315730443Y-192105519D01*
G37*
G36*
X310650443Y-192105519D02*
G01*
X310716627Y-192112037D01*
X310886466Y-192163557D01*
X311042991Y-192247222D01*
X311078729Y-192276552D01*
X311180186Y-192359814D01*
X311263448Y-192461271D01*
X311292778Y-192497009D01*
X311376443Y-192653534D01*
X311427963Y-192823373D01*
X311445359Y-193000000D01*
X311427963Y-193176627D01*
X311376443Y-193346466D01*
X311292778Y-193502991D01*
X311263448Y-193538729D01*
X311180186Y-193640186D01*
X311078729Y-193723448D01*
X311042991Y-193752778D01*
X310886466Y-193836443D01*
X310716627Y-193887963D01*
X310650443Y-193894481D01*
X310584260Y-193901000D01*
X310495740Y-193901000D01*
X310429557Y-193894481D01*
X310363373Y-193887963D01*
X310193534Y-193836443D01*
X310037009Y-193752778D01*
X310001271Y-193723448D01*
X309899814Y-193640186D01*
X309816552Y-193538729D01*
X309787222Y-193502991D01*
X309703557Y-193346466D01*
X309652037Y-193176627D01*
X309634641Y-193000000D01*
X309652037Y-192823373D01*
X309703557Y-192653534D01*
X309787222Y-192497009D01*
X309816552Y-192461271D01*
X309899814Y-192359814D01*
X310001271Y-192276552D01*
X310037009Y-192247222D01*
X310193534Y-192163557D01*
X310363373Y-192112037D01*
X310429557Y-192105519D01*
X310495740Y-192099000D01*
X310584260Y-192099000D01*
X310650443Y-192105519D01*
X310650443Y-192105519D01*
G37*
G36*
X308901000Y-193901000D02*
G01*
X307099000Y-193901000D01*
X307099000Y-192099000D01*
X308901000Y-192099000D01*
X308901000Y-193901000D01*
X308901000Y-193901000D01*
G37*
G36*
X318270443Y-192105519D02*
G01*
X318336627Y-192112037D01*
X318506466Y-192163557D01*
X318662991Y-192247222D01*
X318698729Y-192276552D01*
X318800186Y-192359814D01*
X318883448Y-192461271D01*
X318912778Y-192497009D01*
X318996443Y-192653534D01*
X319047963Y-192823373D01*
X319065359Y-193000000D01*
X319047963Y-193176627D01*
X318996443Y-193346466D01*
X318912778Y-193502991D01*
X318883448Y-193538729D01*
X318800186Y-193640186D01*
X318698729Y-193723448D01*
X318662991Y-193752778D01*
X318506466Y-193836443D01*
X318336627Y-193887963D01*
X318270443Y-193894481D01*
X318204260Y-193901000D01*
X318115740Y-193901000D01*
X318049557Y-193894481D01*
X317983373Y-193887963D01*
X317813534Y-193836443D01*
X317657009Y-193752778D01*
X317621271Y-193723448D01*
X317519814Y-193640186D01*
X317436552Y-193538729D01*
X317407222Y-193502991D01*
X317323557Y-193346466D01*
X317272037Y-193176627D01*
X317254641Y-193000000D01*
X317272037Y-192823373D01*
X317323557Y-192653534D01*
X317407222Y-192497009D01*
X317436552Y-192461271D01*
X317519814Y-192359814D01*
X317621271Y-192276552D01*
X317657009Y-192247222D01*
X317813534Y-192163557D01*
X317983373Y-192112037D01*
X318049557Y-192105519D01*
X318115740Y-192099000D01*
X318204260Y-192099000D01*
X318270443Y-192105519D01*
X318270443Y-192105519D01*
G37*
G36*
X318270443Y-189565519D02*
G01*
X318336627Y-189572037D01*
X318506466Y-189623557D01*
X318662991Y-189707222D01*
X318698729Y-189736552D01*
X318800186Y-189819814D01*
X318883448Y-189921271D01*
X318912778Y-189957009D01*
X318996443Y-190113534D01*
X319047963Y-190283373D01*
X319065359Y-190460000D01*
X319047963Y-190636627D01*
X318996443Y-190806466D01*
X318912778Y-190962991D01*
X318883448Y-190998729D01*
X318800186Y-191100186D01*
X318698729Y-191183448D01*
X318662991Y-191212778D01*
X318506466Y-191296443D01*
X318336627Y-191347963D01*
X318270443Y-191354481D01*
X318204260Y-191361000D01*
X318115740Y-191361000D01*
X318049557Y-191354481D01*
X317983373Y-191347963D01*
X317813534Y-191296443D01*
X317657009Y-191212778D01*
X317621271Y-191183448D01*
X317519814Y-191100186D01*
X317436552Y-190998729D01*
X317407222Y-190962991D01*
X317323557Y-190806466D01*
X317272037Y-190636627D01*
X317254641Y-190460000D01*
X317272037Y-190283373D01*
X317323557Y-190113534D01*
X317407222Y-189957009D01*
X317436552Y-189921271D01*
X317519814Y-189819814D01*
X317621271Y-189736552D01*
X317657009Y-189707222D01*
X317813534Y-189623557D01*
X317983373Y-189572037D01*
X318049558Y-189565518D01*
X318115740Y-189559000D01*
X318204260Y-189559000D01*
X318270443Y-189565519D01*
X318270443Y-189565519D01*
G37*
G36*
X315730443Y-189565519D02*
G01*
X315796627Y-189572037D01*
X315966466Y-189623557D01*
X316122991Y-189707222D01*
X316158729Y-189736552D01*
X316260186Y-189819814D01*
X316343448Y-189921271D01*
X316372778Y-189957009D01*
X316456443Y-190113534D01*
X316507963Y-190283373D01*
X316525359Y-190460000D01*
X316507963Y-190636627D01*
X316456443Y-190806466D01*
X316372778Y-190962991D01*
X316343448Y-190998729D01*
X316260186Y-191100186D01*
X316158729Y-191183448D01*
X316122991Y-191212778D01*
X315966466Y-191296443D01*
X315796627Y-191347963D01*
X315730443Y-191354481D01*
X315664260Y-191361000D01*
X315575740Y-191361000D01*
X315509557Y-191354481D01*
X315443373Y-191347963D01*
X315273534Y-191296443D01*
X315117009Y-191212778D01*
X315081271Y-191183448D01*
X314979814Y-191100186D01*
X314896552Y-190998729D01*
X314867222Y-190962991D01*
X314783557Y-190806466D01*
X314732037Y-190636627D01*
X314714641Y-190460000D01*
X314732037Y-190283373D01*
X314783557Y-190113534D01*
X314867222Y-189957009D01*
X314896552Y-189921271D01*
X314979814Y-189819814D01*
X315081271Y-189736552D01*
X315117009Y-189707222D01*
X315273534Y-189623557D01*
X315443373Y-189572037D01*
X315509558Y-189565518D01*
X315575740Y-189559000D01*
X315664260Y-189559000D01*
X315730443Y-189565519D01*
X315730443Y-189565519D01*
G37*
G36*
X313190443Y-189565519D02*
G01*
X313256627Y-189572037D01*
X313426466Y-189623557D01*
X313582991Y-189707222D01*
X313618729Y-189736552D01*
X313720186Y-189819814D01*
X313803448Y-189921271D01*
X313832778Y-189957009D01*
X313916443Y-190113534D01*
X313967963Y-190283373D01*
X313985359Y-190460000D01*
X313967963Y-190636627D01*
X313916443Y-190806466D01*
X313832778Y-190962991D01*
X313803448Y-190998729D01*
X313720186Y-191100186D01*
X313618729Y-191183448D01*
X313582991Y-191212778D01*
X313426466Y-191296443D01*
X313256627Y-191347963D01*
X313190443Y-191354481D01*
X313124260Y-191361000D01*
X313035740Y-191361000D01*
X312969557Y-191354481D01*
X312903373Y-191347963D01*
X312733534Y-191296443D01*
X312577009Y-191212778D01*
X312541271Y-191183448D01*
X312439814Y-191100186D01*
X312356552Y-190998729D01*
X312327222Y-190962991D01*
X312243557Y-190806466D01*
X312192037Y-190636627D01*
X312174641Y-190460000D01*
X312192037Y-190283373D01*
X312243557Y-190113534D01*
X312327222Y-189957009D01*
X312356552Y-189921271D01*
X312439814Y-189819814D01*
X312541271Y-189736552D01*
X312577009Y-189707222D01*
X312733534Y-189623557D01*
X312903373Y-189572037D01*
X312969558Y-189565518D01*
X313035740Y-189559000D01*
X313124260Y-189559000D01*
X313190443Y-189565519D01*
X313190443Y-189565519D01*
G37*
G36*
X310650443Y-189565519D02*
G01*
X310716627Y-189572037D01*
X310886466Y-189623557D01*
X311042991Y-189707222D01*
X311078729Y-189736552D01*
X311180186Y-189819814D01*
X311263448Y-189921271D01*
X311292778Y-189957009D01*
X311376443Y-190113534D01*
X311427963Y-190283373D01*
X311445359Y-190460000D01*
X311427963Y-190636627D01*
X311376443Y-190806466D01*
X311292778Y-190962991D01*
X311263448Y-190998729D01*
X311180186Y-191100186D01*
X311078729Y-191183448D01*
X311042991Y-191212778D01*
X310886466Y-191296443D01*
X310716627Y-191347963D01*
X310650443Y-191354481D01*
X310584260Y-191361000D01*
X310495740Y-191361000D01*
X310429557Y-191354481D01*
X310363373Y-191347963D01*
X310193534Y-191296443D01*
X310037009Y-191212778D01*
X310001271Y-191183448D01*
X309899814Y-191100186D01*
X309816552Y-190998729D01*
X309787222Y-190962991D01*
X309703557Y-190806466D01*
X309652037Y-190636627D01*
X309634641Y-190460000D01*
X309652037Y-190283373D01*
X309703557Y-190113534D01*
X309787222Y-189957009D01*
X309816552Y-189921271D01*
X309899814Y-189819814D01*
X310001271Y-189736552D01*
X310037009Y-189707222D01*
X310193534Y-189623557D01*
X310363373Y-189572037D01*
X310429558Y-189565518D01*
X310495740Y-189559000D01*
X310584260Y-189559000D01*
X310650443Y-189565519D01*
X310650443Y-189565519D01*
G37*
G36*
X308110443Y-189565519D02*
G01*
X308176627Y-189572037D01*
X308346466Y-189623557D01*
X308502991Y-189707222D01*
X308538729Y-189736552D01*
X308640186Y-189819814D01*
X308723448Y-189921271D01*
X308752778Y-189957009D01*
X308836443Y-190113534D01*
X308887963Y-190283373D01*
X308905359Y-190460000D01*
X308887963Y-190636627D01*
X308836443Y-190806466D01*
X308752778Y-190962991D01*
X308723448Y-190998729D01*
X308640186Y-191100186D01*
X308538729Y-191183448D01*
X308502991Y-191212778D01*
X308346466Y-191296443D01*
X308176627Y-191347963D01*
X308110443Y-191354481D01*
X308044260Y-191361000D01*
X307955740Y-191361000D01*
X307889557Y-191354481D01*
X307823373Y-191347963D01*
X307653534Y-191296443D01*
X307497009Y-191212778D01*
X307461271Y-191183448D01*
X307359814Y-191100186D01*
X307276552Y-190998729D01*
X307247222Y-190962991D01*
X307163557Y-190806466D01*
X307112037Y-190636627D01*
X307094641Y-190460000D01*
X307112037Y-190283373D01*
X307163557Y-190113534D01*
X307247222Y-189957009D01*
X307276552Y-189921271D01*
X307359814Y-189819814D01*
X307461271Y-189736552D01*
X307497009Y-189707222D01*
X307653534Y-189623557D01*
X307823373Y-189572037D01*
X307889558Y-189565518D01*
X307955740Y-189559000D01*
X308044260Y-189559000D01*
X308110443Y-189565519D01*
X308110443Y-189565519D01*
G37*
G36*
X307444739Y-182028707D02*
G01*
X307540329Y-182038122D01*
X307724306Y-182093931D01*
X307724309Y-182093932D01*
X307814225Y-182141994D01*
X307893860Y-182184559D01*
X307932932Y-182216625D01*
X308042476Y-182306524D01*
X308108083Y-182386468D01*
X308164441Y-182455140D01*
X308207006Y-182534775D01*
X308255068Y-182624691D01*
X308255069Y-182624694D01*
X308310878Y-182808671D01*
X308329722Y-183000000D01*
X308310878Y-183191329D01*
X308255069Y-183375306D01*
X308255068Y-183375309D01*
X308207006Y-183465225D01*
X308164441Y-183544860D01*
X308126546Y-183591035D01*
X308042476Y-183693476D01*
X307940035Y-183777546D01*
X307893860Y-183815441D01*
X307814225Y-183858006D01*
X307724309Y-183906068D01*
X307724306Y-183906069D01*
X307540329Y-183961878D01*
X307444739Y-183971293D01*
X307396945Y-183976000D01*
X306103055Y-183976000D01*
X306055261Y-183971293D01*
X305959671Y-183961878D01*
X305775694Y-183906069D01*
X305775691Y-183906068D01*
X305685775Y-183858006D01*
X305606140Y-183815441D01*
X305559965Y-183777546D01*
X305457524Y-183693476D01*
X305373454Y-183591035D01*
X305335559Y-183544860D01*
X305292994Y-183465225D01*
X305244932Y-183375309D01*
X305244931Y-183375306D01*
X305189122Y-183191329D01*
X305170278Y-183000000D01*
X305189122Y-182808671D01*
X305244931Y-182624694D01*
X305244932Y-182624691D01*
X305292994Y-182534775D01*
X305335559Y-182455140D01*
X305391917Y-182386468D01*
X305457524Y-182306524D01*
X305567068Y-182216625D01*
X305606140Y-182184559D01*
X305685775Y-182141994D01*
X305775691Y-182093932D01*
X305775694Y-182093931D01*
X305959671Y-182038122D01*
X306055261Y-182028707D01*
X306103055Y-182024000D01*
X307396945Y-182024000D01*
X307444739Y-182028707D01*
X307444739Y-182028707D01*
G37*
G36*
X319944739Y-182028707D02*
G01*
X320040329Y-182038122D01*
X320224306Y-182093931D01*
X320224309Y-182093932D01*
X320314225Y-182141994D01*
X320393860Y-182184559D01*
X320432932Y-182216625D01*
X320542476Y-182306524D01*
X320608083Y-182386468D01*
X320664441Y-182455140D01*
X320707006Y-182534775D01*
X320755068Y-182624691D01*
X320755069Y-182624694D01*
X320810878Y-182808671D01*
X320829722Y-183000000D01*
X320810878Y-183191329D01*
X320755069Y-183375306D01*
X320755068Y-183375309D01*
X320707006Y-183465225D01*
X320664441Y-183544860D01*
X320626546Y-183591035D01*
X320542476Y-183693476D01*
X320440035Y-183777546D01*
X320393860Y-183815441D01*
X320314225Y-183858006D01*
X320224309Y-183906068D01*
X320224306Y-183906069D01*
X320040329Y-183961878D01*
X319944739Y-183971293D01*
X319896945Y-183976000D01*
X318603055Y-183976000D01*
X318555261Y-183971293D01*
X318459671Y-183961878D01*
X318275694Y-183906069D01*
X318275691Y-183906068D01*
X318185775Y-183858006D01*
X318106140Y-183815441D01*
X318059965Y-183777546D01*
X317957524Y-183693476D01*
X317873454Y-183591035D01*
X317835559Y-183544860D01*
X317792994Y-183465225D01*
X317744932Y-183375309D01*
X317744931Y-183375306D01*
X317689122Y-183191329D01*
X317670278Y-183000000D01*
X317689122Y-182808671D01*
X317744931Y-182624694D01*
X317744932Y-182624691D01*
X317792994Y-182534775D01*
X317835559Y-182455140D01*
X317891917Y-182386468D01*
X317957524Y-182306524D01*
X318067068Y-182216625D01*
X318106140Y-182184559D01*
X318185775Y-182141994D01*
X318275691Y-182093932D01*
X318275694Y-182093931D01*
X318459671Y-182038122D01*
X318555261Y-182028707D01*
X318603055Y-182024000D01*
X319896945Y-182024000D01*
X319944739Y-182028707D01*
X319944739Y-182028707D01*
G37*
G36*
X293530442Y-181145518D02*
G01*
X293596627Y-181152037D01*
X293766466Y-181203557D01*
X293922991Y-181287222D01*
X293958729Y-181316552D01*
X294060186Y-181399814D01*
X294143448Y-181501271D01*
X294172778Y-181537009D01*
X294256443Y-181693534D01*
X294307963Y-181863373D01*
X294325359Y-182040000D01*
X294307963Y-182216627D01*
X294256443Y-182386466D01*
X294172778Y-182542991D01*
X294143448Y-182578729D01*
X294060186Y-182680186D01*
X293958729Y-182763448D01*
X293922991Y-182792778D01*
X293766466Y-182876443D01*
X293596627Y-182927963D01*
X293530443Y-182934481D01*
X293464260Y-182941000D01*
X293375740Y-182941000D01*
X293309558Y-182934482D01*
X293243373Y-182927963D01*
X293073534Y-182876443D01*
X292917009Y-182792778D01*
X292881271Y-182763448D01*
X292779814Y-182680186D01*
X292696552Y-182578729D01*
X292667222Y-182542991D01*
X292583557Y-182386466D01*
X292532037Y-182216627D01*
X292514641Y-182040000D01*
X292532037Y-181863373D01*
X292583557Y-181693534D01*
X292667222Y-181537009D01*
X292696552Y-181501271D01*
X292779814Y-181399814D01*
X292881271Y-181316552D01*
X292917009Y-181287222D01*
X293073534Y-181203557D01*
X293243373Y-181152037D01*
X293309558Y-181145518D01*
X293375740Y-181139000D01*
X293464260Y-181139000D01*
X293530442Y-181145518D01*
X293530442Y-181145518D01*
G37*
G36*
X298610442Y-181145518D02*
G01*
X298676627Y-181152037D01*
X298846466Y-181203557D01*
X299002991Y-181287222D01*
X299038729Y-181316552D01*
X299140186Y-181399814D01*
X299223448Y-181501271D01*
X299252778Y-181537009D01*
X299336443Y-181693534D01*
X299387963Y-181863373D01*
X299405359Y-182040000D01*
X299387963Y-182216627D01*
X299336443Y-182386466D01*
X299252778Y-182542991D01*
X299223448Y-182578729D01*
X299140186Y-182680186D01*
X299038729Y-182763448D01*
X299002991Y-182792778D01*
X298846466Y-182876443D01*
X298676627Y-182927963D01*
X298610443Y-182934481D01*
X298544260Y-182941000D01*
X298455740Y-182941000D01*
X298389558Y-182934482D01*
X298323373Y-182927963D01*
X298153534Y-182876443D01*
X297997009Y-182792778D01*
X297961271Y-182763448D01*
X297859814Y-182680186D01*
X297776552Y-182578729D01*
X297747222Y-182542991D01*
X297663557Y-182386466D01*
X297612037Y-182216627D01*
X297594641Y-182040000D01*
X297612037Y-181863373D01*
X297663557Y-181693534D01*
X297747222Y-181537009D01*
X297776552Y-181501271D01*
X297859814Y-181399814D01*
X297961271Y-181316552D01*
X297997009Y-181287222D01*
X298153534Y-181203557D01*
X298323373Y-181152037D01*
X298389558Y-181145518D01*
X298455740Y-181139000D01*
X298544260Y-181139000D01*
X298610442Y-181145518D01*
X298610442Y-181145518D01*
G37*
G36*
X296070442Y-181145518D02*
G01*
X296136627Y-181152037D01*
X296306466Y-181203557D01*
X296462991Y-181287222D01*
X296498729Y-181316552D01*
X296600186Y-181399814D01*
X296683448Y-181501271D01*
X296712778Y-181537009D01*
X296796443Y-181693534D01*
X296847963Y-181863373D01*
X296865359Y-182040000D01*
X296847963Y-182216627D01*
X296796443Y-182386466D01*
X296712778Y-182542991D01*
X296683448Y-182578729D01*
X296600186Y-182680186D01*
X296498729Y-182763448D01*
X296462991Y-182792778D01*
X296306466Y-182876443D01*
X296136627Y-182927963D01*
X296070443Y-182934481D01*
X296004260Y-182941000D01*
X295915740Y-182941000D01*
X295849558Y-182934482D01*
X295783373Y-182927963D01*
X295613534Y-182876443D01*
X295457009Y-182792778D01*
X295421271Y-182763448D01*
X295319814Y-182680186D01*
X295236552Y-182578729D01*
X295207222Y-182542991D01*
X295123557Y-182386466D01*
X295072037Y-182216627D01*
X295054641Y-182040000D01*
X295072037Y-181863373D01*
X295123557Y-181693534D01*
X295207222Y-181537009D01*
X295236552Y-181501271D01*
X295319814Y-181399814D01*
X295421271Y-181316552D01*
X295457009Y-181287222D01*
X295613534Y-181203557D01*
X295783373Y-181152037D01*
X295849558Y-181145518D01*
X295915740Y-181139000D01*
X296004260Y-181139000D01*
X296070442Y-181145518D01*
X296070442Y-181145518D01*
G37*
G36*
X290990442Y-181145518D02*
G01*
X291056627Y-181152037D01*
X291226466Y-181203557D01*
X291382991Y-181287222D01*
X291418729Y-181316552D01*
X291520186Y-181399814D01*
X291603448Y-181501271D01*
X291632778Y-181537009D01*
X291716443Y-181693534D01*
X291767963Y-181863373D01*
X291785359Y-182040000D01*
X291767963Y-182216627D01*
X291716443Y-182386466D01*
X291632778Y-182542991D01*
X291603448Y-182578729D01*
X291520186Y-182680186D01*
X291418729Y-182763448D01*
X291382991Y-182792778D01*
X291226466Y-182876443D01*
X291056627Y-182927963D01*
X290990443Y-182934481D01*
X290924260Y-182941000D01*
X290835740Y-182941000D01*
X290769558Y-182934482D01*
X290703373Y-182927963D01*
X290533534Y-182876443D01*
X290377009Y-182792778D01*
X290341271Y-182763448D01*
X290239814Y-182680186D01*
X290156552Y-182578729D01*
X290127222Y-182542991D01*
X290043557Y-182386466D01*
X289992037Y-182216627D01*
X289974641Y-182040000D01*
X289992037Y-181863373D01*
X290043557Y-181693534D01*
X290127222Y-181537009D01*
X290156552Y-181501271D01*
X290239814Y-181399814D01*
X290341271Y-181316552D01*
X290377009Y-181287222D01*
X290533534Y-181203557D01*
X290703373Y-181152037D01*
X290769558Y-181145518D01*
X290835740Y-181139000D01*
X290924260Y-181139000D01*
X290990442Y-181145518D01*
X290990442Y-181145518D01*
G37*
G36*
X290990443Y-178605519D02*
G01*
X291056627Y-178612037D01*
X291226466Y-178663557D01*
X291382991Y-178747222D01*
X291418729Y-178776552D01*
X291520186Y-178859814D01*
X291603448Y-178961271D01*
X291632778Y-178997009D01*
X291716443Y-179153534D01*
X291767963Y-179323373D01*
X291785359Y-179500000D01*
X291767963Y-179676627D01*
X291716443Y-179846466D01*
X291632778Y-180002991D01*
X291603448Y-180038729D01*
X291520186Y-180140186D01*
X291418729Y-180223448D01*
X291382991Y-180252778D01*
X291226466Y-180336443D01*
X291056627Y-180387963D01*
X290990443Y-180394481D01*
X290924260Y-180401000D01*
X290835740Y-180401000D01*
X290769557Y-180394481D01*
X290703373Y-180387963D01*
X290533534Y-180336443D01*
X290377009Y-180252778D01*
X290341271Y-180223448D01*
X290239814Y-180140186D01*
X290156552Y-180038729D01*
X290127222Y-180002991D01*
X290043557Y-179846466D01*
X289992037Y-179676627D01*
X289974641Y-179500000D01*
X289992037Y-179323373D01*
X290043557Y-179153534D01*
X290127222Y-178997009D01*
X290156552Y-178961271D01*
X290239814Y-178859814D01*
X290341271Y-178776552D01*
X290377009Y-178747222D01*
X290533534Y-178663557D01*
X290703373Y-178612037D01*
X290769557Y-178605519D01*
X290835740Y-178599000D01*
X290924260Y-178599000D01*
X290990443Y-178605519D01*
X290990443Y-178605519D01*
G37*
G36*
X296070443Y-178605519D02*
G01*
X296136627Y-178612037D01*
X296306466Y-178663557D01*
X296462991Y-178747222D01*
X296498729Y-178776552D01*
X296600186Y-178859814D01*
X296683448Y-178961271D01*
X296712778Y-178997009D01*
X296796443Y-179153534D01*
X296847963Y-179323373D01*
X296865359Y-179500000D01*
X296847963Y-179676627D01*
X296796443Y-179846466D01*
X296712778Y-180002991D01*
X296683448Y-180038729D01*
X296600186Y-180140186D01*
X296498729Y-180223448D01*
X296462991Y-180252778D01*
X296306466Y-180336443D01*
X296136627Y-180387963D01*
X296070443Y-180394481D01*
X296004260Y-180401000D01*
X295915740Y-180401000D01*
X295849557Y-180394481D01*
X295783373Y-180387963D01*
X295613534Y-180336443D01*
X295457009Y-180252778D01*
X295421271Y-180223448D01*
X295319814Y-180140186D01*
X295236552Y-180038729D01*
X295207222Y-180002991D01*
X295123557Y-179846466D01*
X295072037Y-179676627D01*
X295054641Y-179500000D01*
X295072037Y-179323373D01*
X295123557Y-179153534D01*
X295207222Y-178997009D01*
X295236552Y-178961271D01*
X295319814Y-178859814D01*
X295421271Y-178776552D01*
X295457009Y-178747222D01*
X295613534Y-178663557D01*
X295783373Y-178612037D01*
X295849557Y-178605519D01*
X295915740Y-178599000D01*
X296004260Y-178599000D01*
X296070443Y-178605519D01*
X296070443Y-178605519D01*
G37*
G36*
X299401000Y-180401000D02*
G01*
X297599000Y-180401000D01*
X297599000Y-178599000D01*
X299401000Y-178599000D01*
X299401000Y-180401000D01*
X299401000Y-180401000D01*
G37*
G36*
X293530443Y-178605519D02*
G01*
X293596627Y-178612037D01*
X293766466Y-178663557D01*
X293922991Y-178747222D01*
X293958729Y-178776552D01*
X294060186Y-178859814D01*
X294143448Y-178961271D01*
X294172778Y-178997009D01*
X294256443Y-179153534D01*
X294307963Y-179323373D01*
X294325359Y-179500000D01*
X294307963Y-179676627D01*
X294256443Y-179846466D01*
X294172778Y-180002991D01*
X294143448Y-180038729D01*
X294060186Y-180140186D01*
X293958729Y-180223448D01*
X293922991Y-180252778D01*
X293766466Y-180336443D01*
X293596627Y-180387963D01*
X293530443Y-180394481D01*
X293464260Y-180401000D01*
X293375740Y-180401000D01*
X293309557Y-180394481D01*
X293243373Y-180387963D01*
X293073534Y-180336443D01*
X292917009Y-180252778D01*
X292881271Y-180223448D01*
X292779814Y-180140186D01*
X292696552Y-180038729D01*
X292667222Y-180002991D01*
X292583557Y-179846466D01*
X292532037Y-179676627D01*
X292514641Y-179500000D01*
X292532037Y-179323373D01*
X292583557Y-179153534D01*
X292667222Y-178997009D01*
X292696552Y-178961271D01*
X292779814Y-178859814D01*
X292881271Y-178776552D01*
X292917009Y-178747222D01*
X293073534Y-178663557D01*
X293243373Y-178612037D01*
X293309557Y-178605519D01*
X293375740Y-178599000D01*
X293464260Y-178599000D01*
X293530443Y-178605519D01*
X293530443Y-178605519D01*
G37*
G36*
X307444739Y-177028707D02*
G01*
X307540329Y-177038122D01*
X307724306Y-177093931D01*
X307724309Y-177093932D01*
X307814225Y-177141994D01*
X307893860Y-177184559D01*
X307940035Y-177222454D01*
X308042476Y-177306524D01*
X308126546Y-177408965D01*
X308164441Y-177455140D01*
X308207006Y-177534775D01*
X308255068Y-177624691D01*
X308255069Y-177624694D01*
X308310878Y-177808671D01*
X308329722Y-178000000D01*
X308310878Y-178191329D01*
X308255069Y-178375306D01*
X308255068Y-178375309D01*
X308207006Y-178465225D01*
X308164441Y-178544860D01*
X308126546Y-178591035D01*
X308042476Y-178693476D01*
X307976985Y-178747222D01*
X307893860Y-178815441D01*
X307814225Y-178858006D01*
X307724309Y-178906068D01*
X307724306Y-178906069D01*
X307540329Y-178961878D01*
X307444739Y-178971293D01*
X307396945Y-178976000D01*
X306103055Y-178976000D01*
X306055261Y-178971293D01*
X305959671Y-178961878D01*
X305775694Y-178906069D01*
X305775691Y-178906068D01*
X305685775Y-178858006D01*
X305606140Y-178815441D01*
X305523015Y-178747222D01*
X305457524Y-178693476D01*
X305373454Y-178591035D01*
X305335559Y-178544860D01*
X305292994Y-178465225D01*
X305244932Y-178375309D01*
X305244931Y-178375306D01*
X305189122Y-178191329D01*
X305170278Y-178000000D01*
X305189122Y-177808671D01*
X305244931Y-177624694D01*
X305244932Y-177624691D01*
X305292994Y-177534775D01*
X305335559Y-177455140D01*
X305373454Y-177408965D01*
X305457524Y-177306524D01*
X305559965Y-177222454D01*
X305606140Y-177184559D01*
X305685775Y-177141994D01*
X305775691Y-177093932D01*
X305775694Y-177093931D01*
X305959671Y-177038122D01*
X306055261Y-177028707D01*
X306103055Y-177024000D01*
X307396945Y-177024000D01*
X307444739Y-177028707D01*
X307444739Y-177028707D01*
G37*
G36*
X319944739Y-177028707D02*
G01*
X320040329Y-177038122D01*
X320224306Y-177093931D01*
X320224309Y-177093932D01*
X320314225Y-177141994D01*
X320393860Y-177184559D01*
X320440035Y-177222454D01*
X320542476Y-177306524D01*
X320626546Y-177408965D01*
X320664441Y-177455140D01*
X320707006Y-177534775D01*
X320755068Y-177624691D01*
X320755069Y-177624694D01*
X320810878Y-177808671D01*
X320829722Y-178000000D01*
X320810878Y-178191329D01*
X320755069Y-178375306D01*
X320755068Y-178375309D01*
X320707006Y-178465225D01*
X320664441Y-178544860D01*
X320626546Y-178591035D01*
X320542476Y-178693476D01*
X320476985Y-178747222D01*
X320393860Y-178815441D01*
X320314225Y-178858006D01*
X320224309Y-178906068D01*
X320224306Y-178906069D01*
X320040329Y-178961878D01*
X319944739Y-178971293D01*
X319896945Y-178976000D01*
X318603055Y-178976000D01*
X318555261Y-178971293D01*
X318459671Y-178961878D01*
X318275694Y-178906069D01*
X318275691Y-178906068D01*
X318185775Y-178858006D01*
X318106140Y-178815441D01*
X318023015Y-178747222D01*
X317957524Y-178693476D01*
X317873454Y-178591035D01*
X317835559Y-178544860D01*
X317792994Y-178465225D01*
X317744932Y-178375309D01*
X317744931Y-178375306D01*
X317689122Y-178191329D01*
X317670278Y-178000000D01*
X317689122Y-177808671D01*
X317744931Y-177624694D01*
X317744932Y-177624691D01*
X317792994Y-177534775D01*
X317835559Y-177455140D01*
X317873454Y-177408965D01*
X317957524Y-177306524D01*
X318059965Y-177222454D01*
X318106140Y-177184559D01*
X318185775Y-177141994D01*
X318275691Y-177093932D01*
X318275694Y-177093931D01*
X318459671Y-177038122D01*
X318555261Y-177028707D01*
X318603055Y-177024000D01*
X319896945Y-177024000D01*
X319944739Y-177028707D01*
X319944739Y-177028707D01*
G37*
G36*
X319944739Y-167528707D02*
G01*
X320040329Y-167538122D01*
X320224306Y-167593931D01*
X320224309Y-167593932D01*
X320314225Y-167641994D01*
X320393860Y-167684559D01*
X320440035Y-167722454D01*
X320542476Y-167806524D01*
X320626546Y-167908965D01*
X320664441Y-167955140D01*
X320707006Y-168034775D01*
X320755068Y-168124691D01*
X320755069Y-168124694D01*
X320810878Y-168308671D01*
X320829722Y-168500000D01*
X320810878Y-168691329D01*
X320755069Y-168875306D01*
X320755068Y-168875309D01*
X320707006Y-168965225D01*
X320664441Y-169044860D01*
X320626546Y-169091035D01*
X320542476Y-169193476D01*
X320440035Y-169277546D01*
X320393860Y-169315441D01*
X320314225Y-169358006D01*
X320224309Y-169406068D01*
X320224306Y-169406069D01*
X320040329Y-169461878D01*
X319944739Y-169471293D01*
X319896945Y-169476000D01*
X318603055Y-169476000D01*
X318555261Y-169471293D01*
X318459671Y-169461878D01*
X318275694Y-169406069D01*
X318275691Y-169406068D01*
X318185775Y-169358006D01*
X318106140Y-169315441D01*
X318059965Y-169277546D01*
X317957524Y-169193476D01*
X317873454Y-169091035D01*
X317835559Y-169044860D01*
X317792994Y-168965225D01*
X317744932Y-168875309D01*
X317744931Y-168875306D01*
X317689122Y-168691329D01*
X317670278Y-168500000D01*
X317689122Y-168308671D01*
X317744931Y-168124694D01*
X317744932Y-168124691D01*
X317792994Y-168034775D01*
X317835559Y-167955140D01*
X317873454Y-167908965D01*
X317957524Y-167806524D01*
X318059965Y-167722454D01*
X318106140Y-167684559D01*
X318185775Y-167641994D01*
X318275691Y-167593932D01*
X318275694Y-167593931D01*
X318459671Y-167538122D01*
X318555261Y-167528707D01*
X318603055Y-167524000D01*
X319896945Y-167524000D01*
X319944739Y-167528707D01*
X319944739Y-167528707D01*
G37*
G36*
X307444739Y-167528707D02*
G01*
X307540329Y-167538122D01*
X307724306Y-167593931D01*
X307724309Y-167593932D01*
X307814225Y-167641994D01*
X307893860Y-167684559D01*
X307940035Y-167722454D01*
X308042476Y-167806524D01*
X308126546Y-167908965D01*
X308164441Y-167955140D01*
X308207006Y-168034775D01*
X308255068Y-168124691D01*
X308255069Y-168124694D01*
X308310878Y-168308671D01*
X308329722Y-168500000D01*
X308310878Y-168691329D01*
X308255069Y-168875306D01*
X308255068Y-168875309D01*
X308207006Y-168965225D01*
X308164441Y-169044860D01*
X308126546Y-169091035D01*
X308042476Y-169193476D01*
X307940035Y-169277546D01*
X307893860Y-169315441D01*
X307814225Y-169358006D01*
X307724309Y-169406068D01*
X307724306Y-169406069D01*
X307540329Y-169461878D01*
X307444739Y-169471293D01*
X307396945Y-169476000D01*
X306103055Y-169476000D01*
X306055261Y-169471293D01*
X305959671Y-169461878D01*
X305775694Y-169406069D01*
X305775691Y-169406068D01*
X305685775Y-169358006D01*
X305606140Y-169315441D01*
X305559965Y-169277546D01*
X305457524Y-169193476D01*
X305373454Y-169091035D01*
X305335559Y-169044860D01*
X305292994Y-168965225D01*
X305244932Y-168875309D01*
X305244931Y-168875306D01*
X305189122Y-168691329D01*
X305170278Y-168500000D01*
X305189122Y-168308671D01*
X305244931Y-168124694D01*
X305244932Y-168124691D01*
X305292994Y-168034775D01*
X305335559Y-167955140D01*
X305373454Y-167908965D01*
X305457524Y-167806524D01*
X305559965Y-167722454D01*
X305606140Y-167684559D01*
X305685775Y-167641994D01*
X305775691Y-167593932D01*
X305775694Y-167593931D01*
X305959671Y-167538122D01*
X306055261Y-167528707D01*
X306103055Y-167524000D01*
X307396945Y-167524000D01*
X307444739Y-167528707D01*
X307444739Y-167528707D01*
G37*
G36*
X319944739Y-162528707D02*
G01*
X320040329Y-162538122D01*
X320224306Y-162593931D01*
X320224309Y-162593932D01*
X320314225Y-162641994D01*
X320393860Y-162684559D01*
X320440035Y-162722454D01*
X320542476Y-162806524D01*
X320626546Y-162908965D01*
X320664441Y-162955140D01*
X320707006Y-163034775D01*
X320755068Y-163124691D01*
X320755069Y-163124694D01*
X320810878Y-163308671D01*
X320829722Y-163500000D01*
X320810878Y-163691329D01*
X320755069Y-163875306D01*
X320755068Y-163875309D01*
X320707006Y-163965225D01*
X320664441Y-164044860D01*
X320626546Y-164091035D01*
X320542476Y-164193476D01*
X320440035Y-164277546D01*
X320393860Y-164315441D01*
X320314225Y-164358006D01*
X320224309Y-164406068D01*
X320224306Y-164406069D01*
X320040329Y-164461878D01*
X319944739Y-164471293D01*
X319896945Y-164476000D01*
X318603055Y-164476000D01*
X318555261Y-164471293D01*
X318459671Y-164461878D01*
X318275694Y-164406069D01*
X318275691Y-164406068D01*
X318185775Y-164358006D01*
X318106140Y-164315441D01*
X318059965Y-164277546D01*
X317957524Y-164193476D01*
X317873454Y-164091035D01*
X317835559Y-164044860D01*
X317792994Y-163965225D01*
X317744932Y-163875309D01*
X317744931Y-163875306D01*
X317689122Y-163691329D01*
X317670278Y-163500000D01*
X317689122Y-163308671D01*
X317744931Y-163124694D01*
X317744932Y-163124691D01*
X317792994Y-163034775D01*
X317835559Y-162955140D01*
X317873454Y-162908965D01*
X317957524Y-162806524D01*
X318059965Y-162722454D01*
X318106140Y-162684559D01*
X318185775Y-162641994D01*
X318275691Y-162593932D01*
X318275694Y-162593931D01*
X318459671Y-162538122D01*
X318555261Y-162528707D01*
X318603055Y-162524000D01*
X319896945Y-162524000D01*
X319944739Y-162528707D01*
X319944739Y-162528707D01*
G37*
G36*
X307444739Y-162528707D02*
G01*
X307540329Y-162538122D01*
X307724306Y-162593931D01*
X307724309Y-162593932D01*
X307814225Y-162641994D01*
X307893860Y-162684559D01*
X307940035Y-162722454D01*
X308042476Y-162806524D01*
X308126546Y-162908965D01*
X308164441Y-162955140D01*
X308207006Y-163034775D01*
X308255068Y-163124691D01*
X308255069Y-163124694D01*
X308310878Y-163308671D01*
X308329722Y-163500000D01*
X308310878Y-163691329D01*
X308255069Y-163875306D01*
X308255068Y-163875309D01*
X308207006Y-163965225D01*
X308164441Y-164044860D01*
X308126546Y-164091035D01*
X308042476Y-164193476D01*
X307940035Y-164277546D01*
X307893860Y-164315441D01*
X307814225Y-164358006D01*
X307724309Y-164406068D01*
X307724306Y-164406069D01*
X307540329Y-164461878D01*
X307444739Y-164471293D01*
X307396945Y-164476000D01*
X306103055Y-164476000D01*
X306055261Y-164471293D01*
X305959671Y-164461878D01*
X305775694Y-164406069D01*
X305775691Y-164406068D01*
X305685775Y-164358006D01*
X305606140Y-164315441D01*
X305559965Y-164277546D01*
X305457524Y-164193476D01*
X305373454Y-164091035D01*
X305335559Y-164044860D01*
X305292994Y-163965225D01*
X305244932Y-163875309D01*
X305244931Y-163875306D01*
X305189122Y-163691329D01*
X305170278Y-163500000D01*
X305189122Y-163308671D01*
X305244931Y-163124694D01*
X305244932Y-163124691D01*
X305292994Y-163034775D01*
X305335559Y-162955140D01*
X305373454Y-162908965D01*
X305457524Y-162806524D01*
X305559965Y-162722454D01*
X305606140Y-162684559D01*
X305685775Y-162641994D01*
X305775691Y-162593932D01*
X305775694Y-162593931D01*
X305959671Y-162538122D01*
X306055261Y-162528707D01*
X306103055Y-162524000D01*
X307396945Y-162524000D01*
X307444739Y-162528707D01*
X307444739Y-162528707D01*
G37*
G36*
X348588855Y-155852140D02*
G01*
X348652618Y-155858420D01*
X348743404Y-155885960D01*
X348775336Y-155895646D01*
X348888425Y-155956094D01*
X348987554Y-156037446D01*
X349068906Y-156136575D01*
X349129354Y-156249664D01*
X349129355Y-156249668D01*
X349166580Y-156372382D01*
X349179149Y-156500000D01*
X349166580Y-156627618D01*
X349149880Y-156682669D01*
X349129354Y-156750336D01*
X349068906Y-156863425D01*
X348987554Y-156962554D01*
X348888425Y-157043906D01*
X348775336Y-157104354D01*
X348743404Y-157114040D01*
X348652618Y-157141580D01*
X348588855Y-157147860D01*
X348556974Y-157151000D01*
X347943026Y-157151000D01*
X347911145Y-157147860D01*
X347847382Y-157141580D01*
X347756596Y-157114040D01*
X347724664Y-157104354D01*
X347611575Y-157043906D01*
X347512446Y-156962554D01*
X347431094Y-156863425D01*
X347370646Y-156750336D01*
X347350120Y-156682669D01*
X347333420Y-156627618D01*
X347320851Y-156500000D01*
X347333420Y-156372382D01*
X347370645Y-156249668D01*
X347370646Y-156249664D01*
X347431094Y-156136575D01*
X347512446Y-156037446D01*
X347611575Y-155956094D01*
X347724664Y-155895646D01*
X347756596Y-155885960D01*
X347847382Y-155858420D01*
X347911145Y-155852140D01*
X347943026Y-155849000D01*
X348556974Y-155849000D01*
X348588855Y-155852140D01*
X348588855Y-155852140D01*
G37*
G36*
X77016242Y-155603404D02*
G01*
X77053337Y-155614657D01*
X77087515Y-155632925D01*
X77117481Y-155657519D01*
X77142075Y-155687485D01*
X77160343Y-155721663D01*
X77171596Y-155758758D01*
X77176000Y-155803474D01*
X77176000Y-156696526D01*
X77171596Y-156741242D01*
X77160343Y-156778337D01*
X77142075Y-156812515D01*
X77117481Y-156842481D01*
X77087515Y-156867075D01*
X77053337Y-156885343D01*
X77016242Y-156896596D01*
X76971526Y-156901000D01*
X75528474Y-156901000D01*
X75483758Y-156896596D01*
X75446663Y-156885343D01*
X75412485Y-156867075D01*
X75382519Y-156842481D01*
X75357925Y-156812515D01*
X75339657Y-156778337D01*
X75328404Y-156741242D01*
X75324000Y-156696526D01*
X75324000Y-155803474D01*
X75328404Y-155758758D01*
X75339657Y-155721663D01*
X75357925Y-155687485D01*
X75382519Y-155657519D01*
X75412485Y-155632925D01*
X75446663Y-155614657D01*
X75483758Y-155603404D01*
X75528474Y-155599000D01*
X76971526Y-155599000D01*
X77016242Y-155603404D01*
X77016242Y-155603404D01*
G37*
G36*
X348588855Y-153852140D02*
G01*
X348652618Y-153858420D01*
X348743404Y-153885960D01*
X348775336Y-153895646D01*
X348888425Y-153956094D01*
X348987554Y-154037446D01*
X349068906Y-154136575D01*
X349129354Y-154249664D01*
X349129355Y-154249668D01*
X349166580Y-154372382D01*
X349179149Y-154500000D01*
X349166580Y-154627618D01*
X349140815Y-154712553D01*
X349129354Y-154750336D01*
X349068906Y-154863425D01*
X348987554Y-154962554D01*
X348888425Y-155043906D01*
X348775336Y-155104354D01*
X348743404Y-155114040D01*
X348652618Y-155141580D01*
X348588855Y-155147860D01*
X348556974Y-155151000D01*
X347943026Y-155151000D01*
X347911145Y-155147860D01*
X347847382Y-155141580D01*
X347756596Y-155114040D01*
X347724664Y-155104354D01*
X347611575Y-155043906D01*
X347512446Y-154962554D01*
X347431094Y-154863425D01*
X347370646Y-154750336D01*
X347359185Y-154712553D01*
X347333420Y-154627618D01*
X347320851Y-154500000D01*
X347333420Y-154372382D01*
X347370645Y-154249668D01*
X347370646Y-154249664D01*
X347431094Y-154136575D01*
X347512446Y-154037446D01*
X347611575Y-153956094D01*
X347724664Y-153895646D01*
X347756596Y-153885960D01*
X347847382Y-153858420D01*
X347911145Y-153852140D01*
X347943026Y-153849000D01*
X348556974Y-153849000D01*
X348588855Y-153852140D01*
X348588855Y-153852140D01*
G37*
G36*
X76588855Y-153602140D02*
G01*
X76652618Y-153608420D01*
X76743404Y-153635960D01*
X76775336Y-153645646D01*
X76888425Y-153706094D01*
X76987554Y-153787446D01*
X77068906Y-153886575D01*
X77129354Y-153999664D01*
X77129355Y-153999668D01*
X77166580Y-154122382D01*
X77179149Y-154250000D01*
X77166580Y-154377618D01*
X77139040Y-154468404D01*
X77129354Y-154500336D01*
X77068906Y-154613425D01*
X76987554Y-154712554D01*
X76888425Y-154793906D01*
X76775336Y-154854354D01*
X76745432Y-154863425D01*
X76652618Y-154891580D01*
X76588855Y-154897860D01*
X76556974Y-154901000D01*
X75943026Y-154901000D01*
X75911145Y-154897860D01*
X75847382Y-154891580D01*
X75754568Y-154863425D01*
X75724664Y-154854354D01*
X75611575Y-154793906D01*
X75512446Y-154712554D01*
X75431094Y-154613425D01*
X75370646Y-154500336D01*
X75360960Y-154468404D01*
X75333420Y-154377618D01*
X75320851Y-154250000D01*
X75333420Y-154122382D01*
X75370645Y-153999668D01*
X75370646Y-153999664D01*
X75431094Y-153886575D01*
X75512446Y-153787446D01*
X75611575Y-153706094D01*
X75724664Y-153645646D01*
X75756596Y-153635960D01*
X75847382Y-153608420D01*
X75911145Y-153602140D01*
X75943026Y-153599000D01*
X76556974Y-153599000D01*
X76588855Y-153602140D01*
X76588855Y-153602140D01*
G37*
G36*
X348588855Y-151852140D02*
G01*
X348652618Y-151858420D01*
X348743404Y-151885960D01*
X348775336Y-151895646D01*
X348888425Y-151956094D01*
X348987554Y-152037446D01*
X349068906Y-152136575D01*
X349129354Y-152249664D01*
X349129355Y-152249668D01*
X349166580Y-152372382D01*
X349179149Y-152500000D01*
X349166580Y-152627618D01*
X349140815Y-152712553D01*
X349129354Y-152750336D01*
X349068906Y-152863425D01*
X348987554Y-152962554D01*
X348888425Y-153043906D01*
X348775336Y-153104354D01*
X348743404Y-153114040D01*
X348652618Y-153141580D01*
X348588855Y-153147860D01*
X348556974Y-153151000D01*
X347943026Y-153151000D01*
X347911145Y-153147860D01*
X347847382Y-153141580D01*
X347756596Y-153114040D01*
X347724664Y-153104354D01*
X347611575Y-153043906D01*
X347512446Y-152962554D01*
X347431094Y-152863425D01*
X347370646Y-152750336D01*
X347359185Y-152712553D01*
X347333420Y-152627618D01*
X347320851Y-152500000D01*
X347333420Y-152372382D01*
X347370645Y-152249668D01*
X347370646Y-152249664D01*
X347431094Y-152136575D01*
X347512446Y-152037446D01*
X347611575Y-151956094D01*
X347724664Y-151895646D01*
X347756596Y-151885960D01*
X347847382Y-151858420D01*
X347911145Y-151852140D01*
X347943026Y-151849000D01*
X348556974Y-151849000D01*
X348588855Y-151852140D01*
X348588855Y-151852140D01*
G37*
G36*
X76588855Y-151602140D02*
G01*
X76652618Y-151608420D01*
X76743404Y-151635960D01*
X76775336Y-151645646D01*
X76888425Y-151706094D01*
X76987554Y-151787446D01*
X77068906Y-151886575D01*
X77129354Y-151999664D01*
X77129355Y-151999668D01*
X77166580Y-152122382D01*
X77179149Y-152250000D01*
X77166580Y-152377618D01*
X77139040Y-152468404D01*
X77129354Y-152500336D01*
X77068906Y-152613425D01*
X76987554Y-152712554D01*
X76888425Y-152793906D01*
X76775336Y-152854354D01*
X76745432Y-152863425D01*
X76652618Y-152891580D01*
X76588855Y-152897860D01*
X76556974Y-152901000D01*
X75943026Y-152901000D01*
X75911145Y-152897860D01*
X75847382Y-152891580D01*
X75754568Y-152863425D01*
X75724664Y-152854354D01*
X75611575Y-152793906D01*
X75512446Y-152712554D01*
X75431094Y-152613425D01*
X75370646Y-152500336D01*
X75360960Y-152468404D01*
X75333420Y-152377618D01*
X75320851Y-152250000D01*
X75333420Y-152122382D01*
X75370645Y-151999668D01*
X75370646Y-151999664D01*
X75431094Y-151886575D01*
X75512446Y-151787446D01*
X75611575Y-151706094D01*
X75724664Y-151645646D01*
X75756596Y-151635960D01*
X75847382Y-151608420D01*
X75911145Y-151602140D01*
X75943026Y-151599000D01*
X76556974Y-151599000D01*
X76588855Y-151602140D01*
X76588855Y-151602140D01*
G37*
G36*
X349016242Y-149853404D02*
G01*
X349053337Y-149864657D01*
X349087515Y-149882925D01*
X349117481Y-149907519D01*
X349142075Y-149937485D01*
X349160343Y-149971663D01*
X349171596Y-150008758D01*
X349176000Y-150053474D01*
X349176000Y-150946526D01*
X349171596Y-150991242D01*
X349160343Y-151028337D01*
X349142075Y-151062515D01*
X349117481Y-151092481D01*
X349087515Y-151117075D01*
X349053337Y-151135343D01*
X349016242Y-151146596D01*
X348971526Y-151151000D01*
X347528474Y-151151000D01*
X347483758Y-151146596D01*
X347446663Y-151135343D01*
X347412485Y-151117075D01*
X347382519Y-151092481D01*
X347357925Y-151062515D01*
X347339657Y-151028337D01*
X347328404Y-150991242D01*
X347324000Y-150946526D01*
X347324000Y-150053474D01*
X347328404Y-150008758D01*
X347339657Y-149971663D01*
X347357925Y-149937485D01*
X347382519Y-149907519D01*
X347412485Y-149882925D01*
X347446663Y-149864657D01*
X347483758Y-149853404D01*
X347528474Y-149849000D01*
X348971526Y-149849000D01*
X349016242Y-149853404D01*
X349016242Y-149853404D01*
G37*
G36*
X76588855Y-149602140D02*
G01*
X76652618Y-149608420D01*
X76743404Y-149635960D01*
X76775336Y-149645646D01*
X76888425Y-149706094D01*
X76987554Y-149787446D01*
X77068906Y-149886575D01*
X77129354Y-149999664D01*
X77134445Y-150016447D01*
X77166580Y-150122382D01*
X77179149Y-150250000D01*
X77166580Y-150377618D01*
X77139040Y-150468404D01*
X77129354Y-150500336D01*
X77068906Y-150613425D01*
X76987554Y-150712554D01*
X76888425Y-150793906D01*
X76775336Y-150854354D01*
X76743404Y-150864040D01*
X76652618Y-150891580D01*
X76588855Y-150897860D01*
X76556974Y-150901000D01*
X75943026Y-150901000D01*
X75911145Y-150897860D01*
X75847382Y-150891580D01*
X75756596Y-150864040D01*
X75724664Y-150854354D01*
X75611575Y-150793906D01*
X75512446Y-150712554D01*
X75431094Y-150613425D01*
X75370646Y-150500336D01*
X75360960Y-150468404D01*
X75333420Y-150377618D01*
X75320851Y-150250000D01*
X75333420Y-150122382D01*
X75365555Y-150016447D01*
X75370646Y-149999664D01*
X75431094Y-149886575D01*
X75512446Y-149787446D01*
X75611575Y-149706094D01*
X75724664Y-149645646D01*
X75756596Y-149635960D01*
X75847382Y-149608420D01*
X75911145Y-149602140D01*
X75943026Y-149599000D01*
X76556974Y-149599000D01*
X76588855Y-149602140D01*
X76588855Y-149602140D01*
G37*
G36*
X77016242Y-139103404D02*
G01*
X77053337Y-139114657D01*
X77087515Y-139132925D01*
X77117481Y-139157519D01*
X77142075Y-139187485D01*
X77160343Y-139221663D01*
X77171596Y-139258758D01*
X77176000Y-139303474D01*
X77176000Y-140196526D01*
X77171596Y-140241242D01*
X77160343Y-140278337D01*
X77142075Y-140312515D01*
X77117481Y-140342481D01*
X77087515Y-140367075D01*
X77053337Y-140385343D01*
X77016242Y-140396596D01*
X76971526Y-140401000D01*
X75528474Y-140401000D01*
X75483758Y-140396596D01*
X75446663Y-140385343D01*
X75412485Y-140367075D01*
X75382519Y-140342481D01*
X75357925Y-140312515D01*
X75339657Y-140278337D01*
X75328404Y-140241242D01*
X75324000Y-140196526D01*
X75324000Y-139303474D01*
X75328404Y-139258758D01*
X75339657Y-139221663D01*
X75357925Y-139187485D01*
X75382519Y-139157519D01*
X75412485Y-139132925D01*
X75446663Y-139114657D01*
X75483758Y-139103404D01*
X75528474Y-139099000D01*
X76971526Y-139099000D01*
X77016242Y-139103404D01*
X77016242Y-139103404D01*
G37*
G36*
X348588855Y-138852140D02*
G01*
X348652618Y-138858420D01*
X348743404Y-138885960D01*
X348775336Y-138895646D01*
X348888425Y-138956094D01*
X348987554Y-139037446D01*
X349068906Y-139136575D01*
X349129354Y-139249664D01*
X349134445Y-139266447D01*
X349166580Y-139372382D01*
X349179149Y-139500000D01*
X349166580Y-139627618D01*
X349139040Y-139718404D01*
X349129354Y-139750336D01*
X349068906Y-139863425D01*
X348987554Y-139962554D01*
X348888425Y-140043906D01*
X348775336Y-140104354D01*
X348743404Y-140114040D01*
X348652618Y-140141580D01*
X348588855Y-140147860D01*
X348556974Y-140151000D01*
X347943026Y-140151000D01*
X347911145Y-140147860D01*
X347847382Y-140141580D01*
X347756596Y-140114040D01*
X347724664Y-140104354D01*
X347611575Y-140043906D01*
X347512446Y-139962554D01*
X347431094Y-139863425D01*
X347370646Y-139750336D01*
X347360960Y-139718404D01*
X347333420Y-139627618D01*
X347320851Y-139500000D01*
X347333420Y-139372382D01*
X347365555Y-139266447D01*
X347370646Y-139249664D01*
X347431094Y-139136575D01*
X347512446Y-139037446D01*
X347611575Y-138956094D01*
X347724664Y-138895646D01*
X347756596Y-138885960D01*
X347847382Y-138858420D01*
X347911145Y-138852140D01*
X347943026Y-138849000D01*
X348556974Y-138849000D01*
X348588855Y-138852140D01*
X348588855Y-138852140D01*
G37*
G36*
X76588855Y-137102140D02*
G01*
X76652618Y-137108420D01*
X76743404Y-137135960D01*
X76775336Y-137145646D01*
X76888425Y-137206094D01*
X76987554Y-137287446D01*
X77068906Y-137386575D01*
X77129354Y-137499664D01*
X77129355Y-137499668D01*
X77166580Y-137622382D01*
X77179149Y-137750000D01*
X77166580Y-137877618D01*
X77140815Y-137962553D01*
X77129354Y-138000336D01*
X77068906Y-138113425D01*
X76987554Y-138212554D01*
X76888425Y-138293906D01*
X76775336Y-138354354D01*
X76743404Y-138364040D01*
X76652618Y-138391580D01*
X76588855Y-138397860D01*
X76556974Y-138401000D01*
X75943026Y-138401000D01*
X75911145Y-138397860D01*
X75847382Y-138391580D01*
X75756596Y-138364040D01*
X75724664Y-138354354D01*
X75611575Y-138293906D01*
X75512446Y-138212554D01*
X75431094Y-138113425D01*
X75370646Y-138000336D01*
X75359185Y-137962553D01*
X75333420Y-137877618D01*
X75320851Y-137750000D01*
X75333420Y-137622382D01*
X75370645Y-137499668D01*
X75370646Y-137499664D01*
X75431094Y-137386575D01*
X75512446Y-137287446D01*
X75611575Y-137206094D01*
X75724664Y-137145646D01*
X75756596Y-137135960D01*
X75847382Y-137108420D01*
X75911145Y-137102140D01*
X75943026Y-137099000D01*
X76556974Y-137099000D01*
X76588855Y-137102140D01*
X76588855Y-137102140D01*
G37*
G36*
X348588855Y-136852140D02*
G01*
X348652618Y-136858420D01*
X348743404Y-136885960D01*
X348775336Y-136895646D01*
X348888425Y-136956094D01*
X348987554Y-137037446D01*
X349068906Y-137136575D01*
X349129354Y-137249664D01*
X349129355Y-137249668D01*
X349166580Y-137372382D01*
X349179149Y-137500000D01*
X349166580Y-137627618D01*
X349139040Y-137718404D01*
X349129354Y-137750336D01*
X349068906Y-137863425D01*
X348987554Y-137962554D01*
X348888425Y-138043906D01*
X348775336Y-138104354D01*
X348745432Y-138113425D01*
X348652618Y-138141580D01*
X348588855Y-138147860D01*
X348556974Y-138151000D01*
X347943026Y-138151000D01*
X347911145Y-138147860D01*
X347847382Y-138141580D01*
X347754568Y-138113425D01*
X347724664Y-138104354D01*
X347611575Y-138043906D01*
X347512446Y-137962554D01*
X347431094Y-137863425D01*
X347370646Y-137750336D01*
X347360960Y-137718404D01*
X347333420Y-137627618D01*
X347320851Y-137500000D01*
X347333420Y-137372382D01*
X347370645Y-137249668D01*
X347370646Y-137249664D01*
X347431094Y-137136575D01*
X347512446Y-137037446D01*
X347611575Y-136956094D01*
X347724664Y-136895646D01*
X347756596Y-136885960D01*
X347847382Y-136858420D01*
X347911145Y-136852140D01*
X347943026Y-136849000D01*
X348556974Y-136849000D01*
X348588855Y-136852140D01*
X348588855Y-136852140D01*
G37*
G36*
X76588855Y-135102140D02*
G01*
X76652618Y-135108420D01*
X76743404Y-135135960D01*
X76775336Y-135145646D01*
X76888425Y-135206094D01*
X76987554Y-135287446D01*
X77068906Y-135386575D01*
X77129354Y-135499664D01*
X77129355Y-135499668D01*
X77166580Y-135622382D01*
X77179149Y-135750000D01*
X77166580Y-135877618D01*
X77140815Y-135962553D01*
X77129354Y-136000336D01*
X77068906Y-136113425D01*
X76987554Y-136212554D01*
X76888425Y-136293906D01*
X76775336Y-136354354D01*
X76743404Y-136364040D01*
X76652618Y-136391580D01*
X76588855Y-136397860D01*
X76556974Y-136401000D01*
X75943026Y-136401000D01*
X75911145Y-136397860D01*
X75847382Y-136391580D01*
X75756596Y-136364040D01*
X75724664Y-136354354D01*
X75611575Y-136293906D01*
X75512446Y-136212554D01*
X75431094Y-136113425D01*
X75370646Y-136000336D01*
X75359185Y-135962553D01*
X75333420Y-135877618D01*
X75320851Y-135750000D01*
X75333420Y-135622382D01*
X75370645Y-135499668D01*
X75370646Y-135499664D01*
X75431094Y-135386575D01*
X75512446Y-135287446D01*
X75611575Y-135206094D01*
X75724664Y-135145646D01*
X75756596Y-135135960D01*
X75847382Y-135108420D01*
X75911145Y-135102140D01*
X75943026Y-135099000D01*
X76556974Y-135099000D01*
X76588855Y-135102140D01*
X76588855Y-135102140D01*
G37*
G36*
X348588855Y-134852140D02*
G01*
X348652618Y-134858420D01*
X348743404Y-134885960D01*
X348775336Y-134895646D01*
X348888425Y-134956094D01*
X348987554Y-135037446D01*
X349068906Y-135136575D01*
X349129354Y-135249664D01*
X349129355Y-135249668D01*
X349166580Y-135372382D01*
X349179149Y-135500000D01*
X349166580Y-135627618D01*
X349139040Y-135718404D01*
X349129354Y-135750336D01*
X349068906Y-135863425D01*
X348987554Y-135962554D01*
X348888425Y-136043906D01*
X348775336Y-136104354D01*
X348745432Y-136113425D01*
X348652618Y-136141580D01*
X348588855Y-136147860D01*
X348556974Y-136151000D01*
X347943026Y-136151000D01*
X347911145Y-136147860D01*
X347847382Y-136141580D01*
X347754568Y-136113425D01*
X347724664Y-136104354D01*
X347611575Y-136043906D01*
X347512446Y-135962554D01*
X347431094Y-135863425D01*
X347370646Y-135750336D01*
X347360960Y-135718404D01*
X347333420Y-135627618D01*
X347320851Y-135500000D01*
X347333420Y-135372382D01*
X347370645Y-135249668D01*
X347370646Y-135249664D01*
X347431094Y-135136575D01*
X347512446Y-135037446D01*
X347611575Y-134956094D01*
X347724664Y-134895646D01*
X347756596Y-134885960D01*
X347847382Y-134858420D01*
X347911145Y-134852140D01*
X347943026Y-134849000D01*
X348556974Y-134849000D01*
X348588855Y-134852140D01*
X348588855Y-134852140D01*
G37*
G36*
X76588855Y-133102140D02*
G01*
X76652618Y-133108420D01*
X76743404Y-133135960D01*
X76775336Y-133145646D01*
X76888425Y-133206094D01*
X76987554Y-133287446D01*
X77068906Y-133386575D01*
X77129354Y-133499664D01*
X77129355Y-133499668D01*
X77166580Y-133622382D01*
X77179149Y-133750000D01*
X77166580Y-133877618D01*
X77149880Y-133932669D01*
X77129354Y-134000336D01*
X77068906Y-134113425D01*
X76987554Y-134212554D01*
X76888425Y-134293906D01*
X76775336Y-134354354D01*
X76743404Y-134364040D01*
X76652618Y-134391580D01*
X76588855Y-134397860D01*
X76556974Y-134401000D01*
X75943026Y-134401000D01*
X75911145Y-134397860D01*
X75847382Y-134391580D01*
X75756596Y-134364040D01*
X75724664Y-134354354D01*
X75611575Y-134293906D01*
X75512446Y-134212554D01*
X75431094Y-134113425D01*
X75370646Y-134000336D01*
X75350120Y-133932669D01*
X75333420Y-133877618D01*
X75320851Y-133750000D01*
X75333420Y-133622382D01*
X75370645Y-133499668D01*
X75370646Y-133499664D01*
X75431094Y-133386575D01*
X75512446Y-133287446D01*
X75611575Y-133206094D01*
X75724664Y-133145646D01*
X75756596Y-133135960D01*
X75847382Y-133108420D01*
X75911145Y-133102140D01*
X75943026Y-133099000D01*
X76556974Y-133099000D01*
X76588855Y-133102140D01*
X76588855Y-133102140D01*
G37*
G36*
X349016242Y-132853404D02*
G01*
X349053337Y-132864657D01*
X349087515Y-132882925D01*
X349117481Y-132907519D01*
X349142075Y-132937485D01*
X349160343Y-132971663D01*
X349171596Y-133008758D01*
X349176000Y-133053474D01*
X349176000Y-133946526D01*
X349171596Y-133991242D01*
X349160343Y-134028337D01*
X349142075Y-134062515D01*
X349117481Y-134092481D01*
X349087515Y-134117075D01*
X349053337Y-134135343D01*
X349016242Y-134146596D01*
X348971526Y-134151000D01*
X347528474Y-134151000D01*
X347483758Y-134146596D01*
X347446663Y-134135343D01*
X347412485Y-134117075D01*
X347382519Y-134092481D01*
X347357925Y-134062515D01*
X347339657Y-134028337D01*
X347328404Y-133991242D01*
X347324000Y-133946526D01*
X347324000Y-133053474D01*
X347328404Y-133008758D01*
X347339657Y-132971663D01*
X347357925Y-132937485D01*
X347382519Y-132907519D01*
X347412485Y-132882925D01*
X347446663Y-132864657D01*
X347483758Y-132853404D01*
X347528474Y-132849000D01*
X348971526Y-132849000D01*
X349016242Y-132853404D01*
X349016242Y-132853404D01*
G37*
G36*
X169551000Y-63251000D02*
G01*
X166849000Y-63251000D01*
X166849000Y-60549000D01*
X169551000Y-60549000D01*
X169551000Y-63251000D01*
X169551000Y-63251000D01*
G37*
G36*
X163894072Y-57600918D02*
G01*
X164139939Y-57702759D01*
X164361212Y-57850610D01*
X164549390Y-58038788D01*
X164697241Y-58260061D01*
X164799082Y-58505928D01*
X164851000Y-58766938D01*
X164851000Y-59033062D01*
X164799082Y-59294072D01*
X164697241Y-59539939D01*
X164549390Y-59761212D01*
X164361212Y-59949390D01*
X164139939Y-60097241D01*
X164139938Y-60097242D01*
X164139937Y-60097242D01*
X163894072Y-60199082D01*
X163633063Y-60251000D01*
X163366937Y-60251000D01*
X163105928Y-60199082D01*
X162860063Y-60097242D01*
X162860062Y-60097242D01*
X162860061Y-60097241D01*
X162638788Y-59949390D01*
X162450610Y-59761212D01*
X162302759Y-59539939D01*
X162200918Y-59294072D01*
X162149000Y-59033062D01*
X162149000Y-58766938D01*
X162200918Y-58505928D01*
X162302759Y-58260061D01*
X162450610Y-58038788D01*
X162638788Y-57850610D01*
X162860061Y-57702759D01*
X163105928Y-57600918D01*
X163366937Y-57549000D01*
X163633063Y-57549000D01*
X163894072Y-57600918D01*
X163894072Y-57600918D01*
G37*
G36*
X168594072Y-54600918D02*
G01*
X168839939Y-54702759D01*
X169061212Y-54850610D01*
X169249390Y-55038788D01*
X169397241Y-55260061D01*
X169499082Y-55505928D01*
X169551000Y-55766938D01*
X169551000Y-56033062D01*
X169499082Y-56294072D01*
X169397241Y-56539939D01*
X169249390Y-56761212D01*
X169061212Y-56949390D01*
X168839939Y-57097241D01*
X168839938Y-57097242D01*
X168839937Y-57097242D01*
X168594072Y-57199082D01*
X168333063Y-57251000D01*
X168066937Y-57251000D01*
X167805928Y-57199082D01*
X167560063Y-57097242D01*
X167560062Y-57097242D01*
X167560061Y-57097241D01*
X167338788Y-56949390D01*
X167150610Y-56761212D01*
X167002759Y-56539939D01*
X166900918Y-56294072D01*
X166849000Y-56033062D01*
X166849000Y-55766938D01*
X166900918Y-55505928D01*
X167002759Y-55260061D01*
X167150610Y-55038788D01*
X167338788Y-54850610D01*
X167560061Y-54702759D01*
X167805928Y-54600918D01*
X168066937Y-54549000D01*
X168333063Y-54549000D01*
X168594072Y-54600918D01*
X168594072Y-54600918D01*
G37*
M02*
