M48
; DRILL file {KiCad (5.1.4)-1} date 06/09/2020 22:04:08
; FORMAT={-:-/ absolute / inch / decimal}
; #@! TF.CreationDate,2020-09-06T22:04:08+01:00
; #@! TF.GenerationSoftware,Kicad,Pcbnew,(5.1.4)-1
; #@! TF.FileFunction,Plated,1,4,PTH
FMAT,2
INCH
T1C0.0157
T2C0.0295
T3C0.0299
T4C0.0394
T5C0.0512
T6C0.0630
%
G90
G05
T1
X3.3465Y-5.1634
X3.3465Y-5.5886
X3.376Y-5.7972
X3.376Y-6.2697
X3.7087Y-5.25
X3.7402Y-5.8858
X4.0256Y-5.8661
X4.0453Y-5.1969
X4.5571Y-3.0217
X4.5571Y-3.0807
X4.5866Y-2.4409
X4.5866Y-2.4902
X4.5866Y-2.6476
X4.5866Y-2.6969
X4.626Y-3.3071
X4.626Y-3.376
X4.6358Y-2.4409
X4.6358Y-2.4902
X4.6358Y-2.6476
X4.6358Y-2.6969
X4.685Y-2.4409
X4.685Y-2.4902
X4.685Y-2.6476
X4.685Y-2.6969
X4.7343Y-2.4409
X4.7343Y-2.4902
X4.7343Y-2.6476
X4.7343Y-2.6969
X4.9016Y-2.4409
X4.9016Y-2.4902
X4.9016Y-2.6378
X4.9016Y-2.687
X4.9016Y-3.3868
X4.9114Y-3.0413
X4.9508Y-2.4409
X4.9508Y-2.4902
X4.9508Y-2.6378
X4.9508Y-2.687
X4.9508Y-3.0413
X4.9606Y-5.4134
X4.9606Y-6.0039
X4.9902Y-3.0413
X5.0Y-2.4409
X5.0Y-2.4902
X5.0Y-2.6378
X5.0Y-2.687
X5.0295Y-3.0413
X5.0394Y-5.5709
X5.0394Y-6.1614
X5.0492Y-2.4409
X5.0492Y-2.4902
X5.0492Y-2.6378
X5.0492Y-2.687
X5.1654Y-2.815
X5.1969Y-5.5709
X5.1969Y-6.1614
X5.2047Y-2.815
X5.2441Y-2.815
X5.2756Y-5.4134
X5.2756Y-6.0039
X5.2835Y-2.815
X5.3346Y-3.3858
X5.374Y-3.3858
X5.3839Y-3.2579
X5.4232Y-3.2579
X5.4232Y-3.3858
X5.4606Y-2.6378
X5.4606Y-2.7953
X5.4626Y-3.3858
X5.4823Y-3.2579
X5.5Y-2.6378
X5.5Y-2.7953
X5.5197Y-2.3228
X5.5197Y-2.3622
X5.5197Y-2.4409
X5.5197Y-2.4803
X5.5217Y-3.2579
X5.5512Y-4.8228
X5.5512Y-5.4134
X5.5512Y-6.0039
X5.5512Y-6.5945
X5.5787Y-2.6378
X5.5787Y-2.7953
X5.6181Y-2.6378
X5.6181Y-2.7953
X5.6299Y-5.5709
X5.6299Y-6.1614
X5.6299Y-6.752
X5.7087Y-2.8543
X5.7087Y-5.0591
X5.7165Y-3.0315
X5.7165Y-3.2283
X5.7165Y-3.4646
X5.748Y-2.8543
X5.7559Y-3.0315
X5.7559Y-3.2283
X5.7559Y-3.4646
X5.7874Y-2.8543
X5.7874Y-5.5709
X5.7874Y-6.1614
X5.7874Y-6.752
X5.7953Y-3.0315
X5.7953Y-3.2283
X5.7953Y-3.4646
X5.8071Y-5.0
X5.8268Y-2.8543
X5.8346Y-3.0315
X5.8346Y-3.2283
X5.8346Y-3.4646
X5.8661Y-4.8228
X5.8661Y-5.4134
X5.8661Y-6.0039
X5.8661Y-6.5945
X5.874Y-3.0906
X5.874Y-3.1299
X5.874Y-3.1693
X5.874Y-3.5236
X5.874Y-3.563
X5.874Y-3.6024
X5.8937Y-2.5
X5.9528Y-3.0906
X5.9528Y-3.1299
X5.9528Y-3.1693
X5.9528Y-3.5236
X5.9528Y-3.563
X5.9528Y-3.6024
X5.9921Y-3.0315
X5.9921Y-3.2283
X5.9921Y-3.4646
X6.0236Y-2.8937
X6.0236Y-2.9331
X6.0315Y-3.0315
X6.0315Y-3.2283
X6.0315Y-3.4646
X6.0709Y-3.0315
X6.0709Y-3.2283
X6.0709Y-3.4646
X6.1102Y-3.0315
X6.1102Y-3.2283
X6.1102Y-3.4646
X6.122Y-4.2323
X6.1319Y-2.5591
X6.1319Y-2.5984
X6.1417Y-4.8228
X6.1417Y-5.4134
X6.1417Y-6.0039
X6.1417Y-6.5945
X6.1417Y-7.185
X6.2008Y-4.9803
X6.2205Y-5.5709
X6.2205Y-6.1614
X6.2205Y-6.752
X6.2205Y-7.3425
X6.2992Y-4.4685
X6.378Y-4.4685
X6.378Y-4.9803
X6.378Y-5.5709
X6.378Y-6.1614
X6.378Y-6.752
X6.378Y-7.3425
X6.4567Y-4.8228
X6.4567Y-5.4134
X6.4567Y-6.0039
X6.4567Y-6.5945
X6.4567Y-7.185
X6.4764Y-4.2323
X6.7126Y-3.6417
X6.7126Y-4.2323
X6.7323Y-4.8228
X6.7323Y-5.4134
X6.7323Y-6.0039
X6.7323Y-6.5945
X6.7323Y-7.185
X6.7323Y-7.7756
X6.7913Y-4.3898
X6.811Y-4.9803
X6.811Y-5.5709
X6.811Y-6.1614
X6.811Y-6.752
X6.811Y-7.3425
X6.811Y-7.9331
X6.8701Y-3.8583
X6.9291Y-3.8583
X6.9685Y-4.9803
X6.9685Y-5.5709
X6.9685Y-6.1614
X6.9685Y-6.752
X6.9685Y-7.3425
X6.9685Y-7.9331
X6.9882Y-4.3898
X7.0472Y-3.6417
X7.0472Y-4.8228
X7.0472Y-5.4134
X7.0472Y-6.0039
X7.0472Y-6.5945
X7.0472Y-7.185
X7.0472Y-7.7756
X7.0669Y-4.2323
X7.3031Y-3.0512
X7.3031Y-4.2323
X7.3228Y-3.6417
X7.3228Y-4.8228
X7.3228Y-5.4134
X7.3228Y-6.0039
X7.3228Y-6.5945
X7.3228Y-7.185
X7.3228Y-7.7756
X7.3228Y-8.3661
X7.3819Y-3.7992
X7.4016Y-4.3898
X7.4016Y-4.9803
X7.4016Y-5.5709
X7.4016Y-6.1614
X7.4016Y-6.752
X7.4016Y-7.3425
X7.4016Y-7.9331
X7.4016Y-8.5236
X7.5Y-3.2874
X7.5591Y-4.3898
X7.5591Y-4.9803
X7.5591Y-5.5709
X7.5591Y-6.1614
X7.5591Y-6.752
X7.5591Y-7.3425
X7.5591Y-7.9331
X7.5591Y-8.5236
X7.5787Y-3.2087
X7.5787Y-3.7992
X7.6378Y-4.8228
X7.6378Y-5.4134
X7.6378Y-6.0039
X7.6378Y-6.5945
X7.6378Y-7.185
X7.6378Y-7.7756
X7.6378Y-8.3661
X7.6575Y-3.0512
X7.6575Y-3.6417
X7.6575Y-4.2323
X7.8937Y-2.4606
X7.8937Y-3.0512
X7.8937Y-4.2323
X7.9134Y-3.6417
X7.9134Y-4.8228
X7.9134Y-5.4134
X7.9134Y-6.0039
X7.9134Y-6.5945
X7.9134Y-7.185
X7.9134Y-7.7756
X7.9134Y-8.3661
X7.9134Y-8.9567
X7.9724Y-3.2087
X7.9724Y-3.7992
X7.9724Y-4.3898
X7.9921Y-2.6181
X7.9921Y-4.9803
X7.9921Y-5.5709
X7.9921Y-6.1614
X7.9921Y-6.752
X7.9921Y-7.3425
X7.9921Y-7.9331
X7.9921Y-8.5236
X7.9921Y-9.1142
X8.1299Y-2.6969
X8.1496Y-4.9803
X8.1496Y-5.5709
X8.1496Y-6.1614
X8.1496Y-6.752
X8.1496Y-7.3425
X8.1496Y-7.9331
X8.1496Y-8.5236
X8.1496Y-9.1142
X8.1693Y-3.2087
X8.1693Y-3.7992
X8.1693Y-4.3898
X8.2283Y-4.2323
X8.2283Y-4.8228
X8.2283Y-5.4134
X8.2283Y-6.0039
X8.2283Y-6.5945
X8.2283Y-7.185
X8.2283Y-7.7756
X8.2283Y-8.3661
X8.2283Y-8.9567
X8.248Y-2.4606
X8.248Y-3.0512
X8.248Y-3.6417
X8.2677Y-2.8642
X8.3071Y-8.3071
X8.5039Y-2.4606
X8.5039Y-3.0512
X8.5039Y-3.6417
X8.5039Y-4.2323
X8.5039Y-4.8228
X8.5039Y-5.4134
X8.5039Y-6.0039
X8.5039Y-6.5945
X8.5039Y-7.185
X8.5039Y-7.7756
X8.5039Y-8.3661
X8.5039Y-8.9567
X8.5827Y-2.6181
X8.5827Y-3.2087
X8.5827Y-3.7992
X8.5827Y-4.3898
X8.5827Y-4.9803
X8.5827Y-5.5709
X8.5827Y-6.1614
X8.5827Y-6.752
X8.5827Y-7.3425
X8.5827Y-7.9331
X8.5827Y-8.5236
X8.5827Y-9.1142
X8.7402Y-2.6181
X8.7402Y-3.2087
X8.7402Y-3.7992
X8.7402Y-4.3898
X8.7402Y-4.9803
X8.7402Y-5.5709
X8.7402Y-6.1614
X8.7402Y-6.752
X8.7402Y-7.3425
X8.7402Y-7.9331
X8.7402Y-8.5236
X8.7402Y-9.1142
X8.8189Y-2.4606
X8.8189Y-3.0512
X8.8189Y-3.6417
X8.8189Y-4.2323
X8.8189Y-4.8228
X8.8189Y-5.4134
X8.8189Y-6.0039
X8.8189Y-6.5945
X8.8189Y-7.185
X8.8189Y-7.7756
X8.8189Y-8.3661
X8.8189Y-8.9567
X9.0945Y-3.0512
X9.0945Y-3.6417
X9.0945Y-4.2323
X9.0945Y-4.8228
X9.0945Y-5.4134
X9.0945Y-6.0039
X9.0945Y-6.5945
X9.0945Y-7.185
X9.0945Y-7.7756
X9.0945Y-8.3661
X9.1732Y-3.2087
X9.1732Y-3.7992
X9.1732Y-4.3898
X9.1732Y-4.9803
X9.1732Y-5.5709
X9.1732Y-6.1614
X9.1732Y-6.752
X9.1732Y-7.3425
X9.1732Y-7.9331
X9.1732Y-8.5236
X9.3307Y-3.2087
X9.3307Y-3.7992
X9.3307Y-4.3898
X9.3307Y-4.9803
X9.3307Y-5.5709
X9.3307Y-6.1614
X9.3307Y-6.752
X9.3307Y-7.3425
X9.3307Y-7.9331
X9.3307Y-8.5236
X9.4094Y-3.0512
X9.4094Y-3.6417
X9.4094Y-4.2323
X9.4094Y-4.8228
X9.4094Y-5.4134
X9.4094Y-6.0039
X9.4094Y-6.5945
X9.4094Y-7.185
X9.4094Y-7.7756
X9.4094Y-8.3661
X9.439Y-2.8051
X9.5669Y-8.4646
X9.685Y-3.6417
X9.685Y-4.2323
X9.685Y-4.8228
X9.685Y-5.4134
X9.685Y-6.0039
X9.685Y-6.5945
X9.685Y-7.185
X9.685Y-7.7756
X9.7638Y-3.7992
X9.7638Y-4.3898
X9.7638Y-4.9803
X9.7638Y-5.5709
X9.7638Y-6.1614
X9.7638Y-6.752
X9.7638Y-7.3425
X9.7638Y-7.9331
X9.9213Y-3.7992
X9.9213Y-4.3898
X9.9213Y-4.9803
X9.9213Y-5.5709
X9.9213Y-6.1614
X9.9213Y-6.752
X9.9213Y-7.3425
X9.9213Y-7.9331
X10.0Y-3.6417
X10.0Y-4.2323
X10.0Y-4.8228
X10.0Y-5.4134
X10.0Y-6.0039
X10.0Y-6.5945
X10.0Y-7.185
X10.0Y-7.7756
X10.2756Y-4.2323
X10.2756Y-4.8228
X10.2756Y-5.4134
X10.2756Y-6.0039
X10.2756Y-6.5945
X10.2756Y-7.185
X10.2953Y-8.1004
X10.2953Y-8.2185
X10.2953Y-8.3366
X10.3543Y-4.3898
X10.3543Y-4.9803
X10.3543Y-5.5709
X10.3543Y-6.1614
X10.3543Y-6.752
X10.3543Y-7.3425
X10.4921Y-2.9035
X10.5118Y-4.3898
X10.5118Y-4.9803
X10.5118Y-5.5709
X10.5118Y-6.1614
X10.5118Y-6.752
X10.5118Y-7.3425
X10.5512Y-9.311
X10.5906Y-2.9035
X10.5906Y-4.2323
X10.5906Y-4.8228
X10.5906Y-5.4134
X10.5906Y-6.0039
X10.5906Y-6.5945
X10.5906Y-7.185
X10.6496Y-2.7854
X10.6496Y-2.8248
X10.6594Y-2.2933
X10.6693Y-2.0374
X10.6693Y-3.0709
X10.6693Y-3.1102
X10.6693Y-3.189
X10.6693Y-3.2283
X10.6693Y-3.4055
X10.6693Y-3.4449
X10.6693Y-3.5039
X10.6693Y-3.5433
X10.6791Y-7.8543
X10.6912Y-7.9375
X10.6988Y-9.1732
X10.7087Y-3.0709
X10.7087Y-3.1102
X10.7087Y-3.189
X10.7087Y-3.2283
X10.7087Y-3.4055
X10.7087Y-3.4449
X10.7087Y-3.5039
X10.7087Y-3.5433
X10.7087Y-7.8051
X10.7185Y-2.0374
X10.7382Y-8.1201
X10.7579Y-7.6673
X10.7579Y-8.1594
X10.7776Y-7.7067
X10.7972Y-8.189
X10.8071Y-2.7854
X10.8071Y-2.8248
X10.8071Y-2.9035
X10.8071Y-2.9528
X10.8199Y-7.9557
X10.8268Y-8.061
X10.8274Y-7.9079
X10.8475Y-7.7352
X10.8563Y-7.8636
X10.8661Y-4.8228
X10.8661Y-5.4134
X10.8661Y-6.0039
X10.8661Y-6.5945
X10.8661Y-8.061
X10.876Y-3.4055
X10.876Y-3.4449
X10.876Y-3.5039
X10.876Y-3.5433
X10.8858Y-3.0709
X10.8858Y-3.1102
X10.8858Y-3.189
X10.8858Y-3.2283
X10.8957Y-8.2382
X10.9055Y-7.9429
X10.9055Y-8.061
X10.9154Y-3.4055
X10.9154Y-3.4449
X10.9154Y-3.5039
X10.9154Y-3.5433
X10.9252Y-3.0709
X10.9252Y-3.1102
X10.9252Y-3.189
X10.9252Y-3.2283
X10.935Y-8.1703
X10.9449Y-4.9803
X10.9449Y-5.5709
X10.9449Y-6.1614
X10.9449Y-6.752
X10.9744Y-2.3425
X10.9744Y-2.4016
X10.9941Y-2.5984
X10.9941Y-2.6476
X11.0138Y-8.0128
X11.0202Y-9.3676
X11.0236Y-8.6811
X11.0531Y-8.6516
X11.063Y-2.0079
X11.063Y-2.0472
X11.1024Y-4.9803
X11.1024Y-5.5709
X11.1024Y-6.1614
X11.1024Y-6.752
X11.1024Y-8.376
X11.122Y-8.7598
X11.1304Y-9.3676
X11.1319Y-7.6781
X11.1417Y-8.5138
X11.1713Y-7.4409
X11.1811Y-4.8228
X11.1811Y-5.4134
X11.1811Y-6.0039
X11.1811Y-6.5945
X11.185Y-9.2264
X11.185Y-9.2657
X11.2008Y-3.4941
X11.2008Y-3.5335
X11.2303Y-7.4508
X11.25Y-8.2382
X11.2795Y-7.5984
X11.2992Y-7.5
X11.3091Y-8.0807
X11.3189Y-7.7559
X11.3189Y-7.815
X11.3583Y-1.9783
X11.3583Y-2.0276
X11.3583Y-2.1063
X11.3583Y-2.1457
X11.3583Y-2.2933
X11.3583Y-2.3327
X11.3583Y-2.4114
X11.3583Y-2.4508
X11.3976Y-1.9783
X11.3976Y-2.0276
X11.3976Y-2.1063
X11.3976Y-2.1457
X11.3976Y-2.2933
X11.3976Y-2.3327
X11.3976Y-2.4114
X11.3976Y-2.4508
X11.4567Y-5.4134
X11.4567Y-6.0039
X11.4567Y-8.7697
X11.4665Y-2.5591
X11.4665Y-2.5984
X11.4665Y-2.6673
X11.4665Y-2.7165
X11.4961Y-7.5
X11.5157Y-7.8543
X11.5157Y-8.5925
X11.5256Y-7.4606
X11.5354Y-3.4843
X11.5354Y-5.5709
X11.5354Y-6.1614
X11.5453Y-8.1201
X11.5551Y-1.9783
X11.5551Y-2.0177
X11.5551Y-2.0965
X11.5551Y-2.1358
X11.565Y-2.2835
X11.565Y-2.3228
X11.565Y-2.4114
X11.565Y-2.4508
X11.565Y-7.9724
X11.5868Y-7.9397
X11.594Y-7.4011
X11.5945Y-1.9783
X11.5945Y-2.0177
X11.5945Y-2.0965
X11.5945Y-2.1358
X11.5945Y-3.4843
X11.6043Y-2.2835
X11.6043Y-2.3228
X11.6043Y-2.4114
X11.6043Y-2.4508
X11.6043Y-3.2185
X11.6043Y-7.6772
X11.6437Y-7.9035
X11.6553Y-7.9742
X11.6634Y-2.6378
X11.6732Y-7.8642
X11.6797Y-8.6016
X11.6929Y-5.5709
X11.6929Y-6.1614
X11.6929Y-7.3425
X11.7028Y-2.6378
X11.7377Y-7.9385
X11.752Y-2.6378
X11.7717Y-5.4134
X11.7717Y-6.0039
X11.7913Y-2.6378
X11.812Y-7.9045
X11.8214Y-8.0999
X11.8432Y-8.6026
X11.8701Y-6.5748
X11.9094Y-7.8642
X12.0374Y-7.7756
X12.0866Y-7.815
X12.126Y-3.7402
X12.3228Y-3.7402
X12.628Y-5.4626
X12.7264Y-5.9941
X12.9823Y-5.5118
X12.9921Y-6.1614
X13.3563Y-5.1378
X13.3563Y-5.5906
X13.3661Y-5.8169
X13.3661Y-6.25
T2
X3.002Y-5.2657
X3.002Y-5.3445
X3.002Y-5.4232
X3.002Y-5.502
X13.7106Y-5.2559
X13.7106Y-5.3346
X13.7106Y-5.4134
X13.7106Y-5.4921
X13.7106Y-5.9252
X13.7106Y-6.0039
X13.7106Y-6.0827
X13.7106Y-6.1614
X3.002Y-5.9154
X3.002Y-5.9941
X3.002Y-6.0728
X3.002Y-6.1516
T3
X11.4173Y-8.9665
X11.4673Y-8.8665
X11.5173Y-8.9665
X11.5673Y-8.8665
X11.6173Y-8.9665
X11.6673Y-8.8665
X11.7173Y-8.9665
X11.7673Y-8.8665
T4
X11.452Y-7.0669
X11.452Y-7.1669
X11.552Y-7.0669
X11.552Y-7.1669
X11.652Y-7.0669
X11.652Y-7.1669
X11.752Y-7.0669
X11.752Y-7.1669
X12.126Y-7.4984
X12.126Y-7.5984
X12.226Y-7.4984
X12.226Y-7.5984
X12.326Y-7.4984
X12.326Y-7.5984
X12.426Y-7.4984
X12.426Y-7.5984
X12.526Y-7.4984
X12.526Y-7.5984
T5
X12.0768Y-6.437
X12.0768Y-6.6339
X12.5689Y-6.437
X12.5689Y-6.6339
X12.0768Y-7.0079
X12.0768Y-7.2047
X12.5689Y-7.0079
X12.5689Y-7.2047
T6
X6.437Y-2.3189
X6.622Y-2.2008
X6.622Y-2.437
T0
M30
